{
.appVersion = "3133";
.formatVersion = 3;
DisplayStrings = (
"”",
"“",
"•",
"&",
"#",
Q,
$,
"’",
"‘",
"«",
"‹",
"»",
"›",
"'",
"\"",
"-",
"—",
"–",
_,
"¿",
";",
"·",
"!",
"¡"
);
customParameters = (
{
name = vendorID;
value = PfEd;
},
{
name = panose;
value = (
2,
0,
8,
3,
0,
0,
0,
0,
0,
0
);
},
{
name = unicodeRanges;
value = (
0,
1,
2,
31,
33
);
},
{
name = codePageRanges;
value = (
"1252"
);
},
{
name = fsType;
value = (
);
},
{
name = glyphOrder;
value = (
.notdef,
.null,
CR,
space,
exclam,
numbersign,
dollar,
percent,
ampersand,
parenleft,
parenright,
asterisk,
plus,
comma,
hyphen,
period,
slash,
zero,
one,
two,
three,
four,
five,
six,
seven,
eight,
nine,
colon,
semicolon,
less,
equal,
greater,
question,
at,
A,
B,
C,
D,
E,
F,
G,
H,
I,
J,
K,
L,
M,
N,
O,
P,
Q,
R,
S,
T,
U,
V,
W,
X,
Y,
Z,
bracketleft,
backslash,
bracketright,
a,
b,
c,
d,
e,
f,
g,
h,
i,
j,
k,
l,
m,
n,
o,
p,
q,
r,
s,
t,
u,
v,
w,
x,
y,
z,
braceleft,
bar,
braceright,
asciitilde,
cent,
sterling,
section,
guillemotleft,
guillemotright,
questiondown,
Agrave,
Aacute,
Acircumflex,
Adieresis,
Ccedilla,
Egrave,
Eacute,
Ecircumflex,
Edieresis,
Icircumflex,
Idieresis,
Ntilde,
Oacute,
Ocircumflex,
Odieresis,
Ugrave,
Uacute,
Ucircumflex,
Udieresis,
germandbls,
agrave,
aacute,
acircumflex,
adieresis,
ccedilla,
egrave,
eacute,
ecircumflex,
edieresis,
icircumflex,
idieresis,
oacute,
ocircumflex,
odieresis,
ugrave,
uacute,
ucircumflex,
udieresis,
eogonek,
quoteright,
quotedblleft,
quotedblright,
bullet,
Euro
);
}
);
date = "2015-06-06 20:22:57 +0000";
familyName = BryantBold1;
fontMaster = (
{
customParameters = (
{
name = typoAscender;
value = 800;
},
{
name = typoDescender;
value = -200;
},
{
name = typoLineGap;
value = 90;
},
{
name = winAscent;
value = 801;
},
{
name = winDescent;
value = 86;
},
{
name = hheaAscender;
value = 801;
},
{
name = hheaDescender;
value = -86;
},
{
name = strikeoutPosition;
value = 258;
},
{
name = strikeoutSize;
value = 49;
},
{
name = "prep Table Assembly";

glyphs = (
{
glyphname = .notdef;
layers = (
{
layerId = m01;
shapes = (
{
closed = 1;
nodes = (
(298,666,l),
(33,666,l),
(33,0,l),
(298,0,l)
);
},
{
closed = 1;
nodes = (
(265,633,l),
(265,33,l),
(66,33,l),
(66,633,l)
);
}
);
userData = {
assembly = "PUSHB[ ]	/* 2 values pushed */
1 0 
MDAP[1]	/* MoveDirectAbsPt */
ALIGNRP[ ]	/* AlignRelativePt */
PUSHB[ ]	/* 3 values pushed */
7 4 12 
MIRP[01101]	/* MoveIndirectRelPt */
SHP[0]	/* ShiftPointByLastPoint */
PUSHB[ ]	/* 2 values pushed */
6 5 
MDRP[11100]	/* MoveDirectRelPt */
ALIGNRP[ ]	/* AlignRelativePt */
PUSHB[ ]	/* 3 values pushed */
3 2 12 
MIRP[01101]	/* MoveIndirectRelPt */
SHP[0]	/* ShiftPointByLastPoint */
SVTCA[0]	/* SetFreedomAndProjectionVectorToAxis */
PUSHB[ ]	/* 2 values pushed */
3 0 
MDAP[1]	/* MoveDirectAbsPt */
ALIGNRP[ ]	/* AlignRelativePt */
PUSHB[ ]	/* 3 values pushed */
5 4 12 
MIRP[01101]	/* MoveIndirectRelPt */
SHP[0]	/* ShiftPointByLastPoint */
PUSHB[ ]	/* 3 values pushed */
7 6 13 
MIRP[11100]	/* MoveIndirectRelPt */
ALIGNRP[ ]	/* AlignRelativePt */
PUSHB[ ]	/* 3 values pushed */
1 2 12 
MIRP[01101]	/* MoveIndirectRelPt */
SHP[0]	/* ShiftPointByLastPoint */";
};
width = 364;
}
);
note = ".notdef";
},
{
glyphname = exclam;
layers = (
{
layerId = m01;
shapes = (
{
closed = 1;
nodes = (
(115,515,o),
(95,440,qs),
(84,393,o),
(72,333,o),
(70,295,o),
(77,281,o),
(86,281,qs),
(102,281,o),
(160,356,o),
(160,377,qs),
(160,393,o),
(247,660,o),
(265,701,qs),
(283,736,o),
(269,747,q),
(256,760,o),
(200,774,o),
(195,765,qs),
(186,748,o)
);
},
{
closed = 1;
nodes = (
(6,31,o),
(26,-18,o),
(49,-18,qs),
(70,-18,o),
(134,68,o),
(134,97,qs),
(134,129,o),
(101,167,o),
(54,161,o),
(38,135,qs),
(18,103,o)
);
}
);
width = 284;
}
);
note = exclam;
unicode = 33;
},
{
glyphname = numbersign;
lastChange = "2022-08-09 19:43:09 +0000";
layers = (
{
layerId = m01;
shapes = (
{
closed = 1;
nodes = (
(174,566,o),
(132,561,qs),
(76,555,o),
(69,507,o),
(119,473,qs),
(167,441,o),
(156,412,o),
(93,408,qs),
(23,403,o),
(11,394,q),
(3,386,o),
(96,281,o),
(117,274,qs),
(128,270,o),
(128,230,o),
(119,166,qs),
(110,105,o),
(110,51,o),
(120,33,qs),
(136,3,o),
(149,4,qs),
(177,4,o),
(210,139,qs),
(242,269,l),
(326,265,ls),
(409,261,o),
(420,252,qs),
(423,249,o),
(420,199,o),
(415,172,qs),
(402,100,o),
(416,62,qs),
(427,35,o),
(438,31,o),
(456,48,qs),
(467,58,o),
(482,88,o),
(482,99,qs),
(482,126,o),
(499,191,qs),
(516,256,l),
(581,256,ls),
(643,256,o),
(646,291,o),
(586,314,qs),
(546,330,o),
(528,351,o),
(528,381,qs),
(528,425,l),
(599,425,ls),
(641,425,o),
(672,434,o),
(674,447,qs),
(678,466,o),
(644,488,o),
(599,496,qs),
(583,499,o),
(567,506,o),
(555,517,o),
(555,550,o),
(557,587,o),
(561,626,qs),
(564,655,o),
(557,672,o),
(538,675,qs),
(516,678,o),
(499,646,o),
(489,578,qs),
(479,521,o),
(471,517,qs),
(460,510,o),
(344,541,o),
(329,555,qs),
(318,564,o),
(322,587,o),
(338,614,qs),
(336,658,o),
(336,669,qs),
(308,719,o),
(290,678,qs),
(247,580,ls),
(235,554,o)
);
},
{
closed = 1;
nodes = (
(456,406,o),
(456,387,qs),
(456,353,o),
(420,341,o),
(356,353,qs),
(294,364,o),
(257,389,o),
(267,413,qs),
(272,427,o),
(298,432,o),
(336,426,qs),
(400,418,o),
(425,418,qs),
(444,418,o)
);
}
);
width = 685;
}
);
note = numbersign;
unicode = 35;
},
{
glyphname = dollar;
lastChange = "2022-08-09 19:48:47 +0000";
layers = (
{
layerId = m01;
shapes = (
{
closed = 1;
nodes = (
(58,483,o),
(58,465,qs),
(58,458,o),
(86,417,o),
(105,396,qs),
(139,358,o),
(149,325,o),
(142,270,qs),
(134,196,o),
(108,154,o),
(75,159,qs),
(61,161,o),
(27,156,o),
(19,151,qs),
(7,142,o),
(15,121,o),
(41,95,qs),
(64,71,o),
(80,39,o),
(76,24,qs),
(68,-6,o),
(82,-12,qs),
(103,-21,o),
(141,24,qs),
(158,43,o),
(201,74,o),
(214,77,qs),
(264,88,o),
(333,148,o),
(344,188,qs),
(357,237,o),
(340,298,o),
(297,353,qs),
(256,406,o),
(238,473,o),
(249,527,qs),
(257,568,o),
(276,589,o),
(313,598,qs),
(353,607,o),
(423,656,o),
(409,657,qs),
(297,662,o),
(341,748,o),
(294,748,qs),
(240,748,o),
(249,660,o),
(153,640,qs),
(120,633,o)
);
},
{
closed = 1;
nodes = (
(230,247,qs),
(217,221,o),
(207,230,qs),
(200,238,o),
(218,305,o),
(228,305,qs),
(233,305,o),
(240,292,o),
(240,283,qs),
(240,265,o)
);
}
);
width = 419;
}
);
note = dollar;
unicode = 36;
},
{
glyphname = percent;
layers = (
{
layerId = m01;
shapes = (
{
closed = 1;
nodes = (
(326,608,o),
(255,488,qs),
(190,379,o),
(153,326,qs),
(115,273,o),
(60,163,o),
(68,157,q),
(95,141,o),
(188,245,o),
(276,391,qs),
(311,448,o),
(401,576,o),
(429,608,qs),
(467,650,o),
(490,689,o),
(490,729,o),
(476,771,qs),
(474,779,o),
(470,783,qs),
(455,799,o),
(404,726,qs),
(365,671,o)
);
},
{
closed = 1;
nodes = (
(10,606,o),
(10,547,qs),
(10,482,o),
(45,443,o),
(104,444,qs),
(141,445,o),
(175,460,o),
(194,483,qs),
(224,520,o),
(225,626,o),
(197,662,qs),
(175,691,o),
(144,696,o),
(98,679,qs),
(46,660,o)
);
},
{
closed = 1;
nodes = (
(117,500,o),
(97,504,qs),
(77,508,o),
(67,550,o),
(80,583,qs),
(92,612,o),
(142,623,o),
(152,597,qs),
(160,575,o)
);
},
{
closed = 1;
nodes = (
(365,392,o),
(354,370,qs),
(322,307,o),
(338,231,o),
(389,206,qs),
(420,192,o),
(448,192,o),
(479,208,qs),
(537,235,o),
(572,373,o),
(536,434,qs),
(490,509,o),
(414,448,qs),
(400,438,o)
);
},
{
closed = 1;
nodes = (
(466,255,o),
(436,255,qs),
(425,255,o),
(418,288,o),
(428,340,o),
(440,366,qs),
(463,415,o),
(503,402,o),
(502,347,qs),
(501,304,o)
);
}
);
width = 570;
}
);
note = percent;
unicode = 37;
},
{
glyphname = ampersand;
lastChange = "2022-08-09 19:40:34 +0000";
layers = (
{
layerId = m01;
shapes = (
{
closed = 1;
nodes = (
(31,519,o),
(49,445,qs),
(58,411,o),
(31,352,qs),
(13,316,o),
(8,281,o),
(17,258,qs),
(38,201,o),
(144,123,o),
(197,123,qs),
(234,123,o),
(269,81,qs),
(287,57,o),
(307,45,o),
(315,52,qs),
(324,62,o),
(321,99,o),
(308,141,qs),
(299,167,o),
(294,187,o),
(288,209,o),
(296,219,o),
(303,227,o),
(313,234,qs),
(324,242,o),
(341,265,o),
(341,273,qs),
(341,293,o),
(301,306,o),
(283,291,qs),
(270,280,o),
(266,283,q),
(258,286,o),
(239,360,qs),
(231,391,o),
(238,428,o),
(258,464,qs),
(328,569,o),
(279,612,q),
(157,677,o),
(87,644,o),
(62,613,qs),
(36,582,o)
);
},
{
closed = 1;
nodes = (
(189,473,o),
(178,473,qs),
(155,473,o),
(131,539,o),
(147,558,qs),
(155,568,o),
(186,579,o),
(212,575,o),
(212,565,qs),
(212,535,o)
);
},
{
closed = 1;
nodes = (
(176,239,o),
(158,239,qs),
(102,239,o),
(83,306,o),
(130,343,qs),
(162,369,o),
(186,349,o),
(186,297,qs),
(186,260,o)
);
}
);
width = 351;
}
);
note = ampersand;
unicode = 38;
},
{
glyphname = parenleft;
layers = (
{
layerId = m01;
shapes = (
{
closed = 1;
nodes = (
(25,458,o),
(6,339,o),
(20,160,o),
(37,131,qs),
(49,109,o),
(44,84,qs),
(40,71,o),
(49,60,o),
(63,60,qs),
(92,60,o),
(99,47,qs),
(106,34,o),
(180,72,o),
(188,94,qs),
(192,102,o),
(184,134,o),
(175,148,qs),
(133,212,o),
(149,422,o),
(202,534,qs),
(233,596,o),
(241,634,o),
(227,655,qs),
(209,683,o),
(172,680,o),
(141,648,qs),
(98,601,o)
);
}
);
width = 248;
}
);
note = parenleft;
unicode = 40;
},
{
glyphname = parenright;
layers = (
{
layerId = m01;
shapes = (
{
closed = 1;
nodes = (
(127,616,qs),
(153,566,o),
(168,365,o),
(150,294,qs),
(140,255,o),
(107,199,o),
(71,162,qs),
(34,125,o),
(10,92,o),
(12,70,o),
(28,53,qs),
(59,22,o),
(88,43,qs),
(134,74,o),
(216,278,qs),
(251,364,o),
(253,474,o),
(220,555,qs),
(202,602,o),
(159,667,o),
(122,688,o),
(107,675,qs),
(100,668,o)
);
}
);
width = 262;
}
);
note = parenright;
unicode = 41;
},
{
glyphname = asterisk;
layers = (
{
layerId = m01;
shapes = (
{
closed = 1;
nodes = (
(40,644,qs),
(26,644,o),
(10,633,o),
(10,625,qs),
(10,617,o),
(16,605,o),
(20,605,qs),
(32,605,o),
(57,587,qs),
(74,573,o),
(72,564,o),
(46,555,qs),
(10,540,o),
(10,516,qs),
(10,455,o),
(74,509,qs),
(108,538,o),
(140,527,o),
(159,481,qs),
(169,457,o),
(189,437,o),
(201,439,qs),
(218,443,o),
(224,475,o),
(216,527,qs),
(213,548,o),
(224,560,o),
(249,560,qs),
(283,560,o),
(300,596,o),
(275,614,qs),
(257,628,o),
(259,639,o),
(280,653,qs),
(309,675,o),
(309,692,qs),
(309,704,o),
(270,707,o),
(220,690,o),
(206,677,qs),
(194,664,o),
(174,669,o),
(150,692,qs),
(115,726,l),
(92,686,ls),
(68,644,o)
);
}
);
width = 319;
}
);
note = asterisk;
unicode = 42;
},
{
glyphname = plus;
layers = (
{
layerId = m01;
shapes = (
{
closed = 1;
nodes = (
(209,616,qs),
(209,551,o),
(174,518,o),
(113,523,qs),
(63,529,o),
(38,520,o),
(24,491,qs),
(10,464,o),
(10,445,o),
(24,434,qs),
(45,417,o),
(111,410,qs),
(177,404,l),
(181,322,ls),
(185,240,o),
(204,232,qs),
(225,225,o),
(261,263,o),
(261,294,qs),
(261,356,o),
(286,410,o),
(317,416,qs),
(383,429,o),
(395,488,o),
(337,514,qs),
(320,522,o),
(307,528,o),
(290,541,o),
(286,548,o),
(281,569,o),
(281,588,o),
(281,608,qs),
(281,652,o),
(272,678,o),
(255,681,qs),
(228,685,o),
(218,675,qs),
(209,666,o)
);
}
);
width = 400;
}
);
note = plus;
unicode = 43;
},
{
glyphname = comma;
layers = (
{
layerId = m01;
shapes = (
{
closed = 1;
nodes = (
(3,2,o),
(15,-12,q),
(23,-19,o),
(31,-18,qs),
(66,-16,o),
(102,87,qs),
(120,135,o),
(127,182,o),
(119,199,qs),
(93,253,o),
(50,206,qs),
(32,185,o)
);
}
);
width = 135;
}
);
note = comma;
unicode = 44;
},
{
glyphname = hyphen;
layers = (
{
layerId = m01;
shapes = (
{
closed = 1;
nodes = (
(7,351,o),
(26,335,qs),
(47,317,o),
(337,330,o),
(356,349,qs),
(375,368,o),
(374,379,qs),
(372,406,o),
(249,416,qs),
(158,423,o),
(100,431,q),
(87,434,o),
(51,426,o),
(39,417,qs),
(14,399,o)
);
}
);
width = 384;
}
);
note = hyphen;
unicode = 45;
},
{
glyphname = period;
layers = (
{
layerId = m01;
shapes = (
{
closed = 1;
nodes = (
(19,104,o),
(41,101,qs),
(73,97,o),
(108,141,o),
(110,187,qs),
(111,217,o),
(100,237,o),
(83,239,qs),
(53,243,o),
(16,181,o),
(11,144,qs),
(8,119,o)
);
}
);
width = 120;
}
);
note = period;
unicode = 46;
},
{
glyphname = slash;
layers = (
{
layerId = m01;
shapes = (
{
closed = 1;
nodes = (
(172,534,o),
(93,340,qs),
(-2,106,o),
(13,90,q),
(15,86,o),
(18,83,qs),
(39,61,o),
(63,87,qs),
(95,122,o),
(205,345,qs),
(278,493,o),
(338,647,o),
(340,690,qs),
(341,728,o),
(300,734,o),
(270,700,qs),
(233,660,o)
);
}
);
width = 350;
}
);
note = slash;
unicode = 47;
},
{
glyphname = zero;
layers = (
{
layerId = m01;
shapes = (
{
closed = 1;
nodes = (
(0,446,o),
(28,339,qs),
(40,292,o),
(74,235,o),
(112,197,qs),
(174,134,l),
(221,156,ls),
(266,177,o),
(273,188,qs),
(283,203,o),
(320,403,o),
(320,439,qs),
(320,495,o),
(256,639,o),
(215,677,qs),
(132,752,o),
(82,699,qs),
(30,640,o)
);
},
{
closed = 1;
nodes = (
(239,401,qs),
(236,311,o),
(225,259,o),
(204,236,qs),
(176,206,o),
(151,223,o),
(133,284,qs),
(118,333,o),
(132,543,o),
(152,582,qs),
(165,606,o),
(210,597,o),
(226,566,qs),
(243,531,o)
);
}
);
width = 330;
}
);
note = zero;
unicode = 48;
},
{
glyphname = one;
layers = (
{
layerId = m01;
shapes = (
{
closed = 1;
nodes = (
(61,488,qs),
(29,295,o),
(16,235,qs),
(8,200,o),
(15,172,o),
(38,148,qs),
(69,116,o),
(105,135,o),
(113,188,qs),
(120,229,o),
(185,552,o),
(199,617,qs),
(209,663,o),
(197,689,o),
(156,706,qs),
(136,714,o),
(115,714,o),
(108,705,qs),
(96,689,o)
);
}
);
width = 216;
}
);
note = one;
unicode = 49;
},
{
glyphname = two;
layers = (
{
layerId = m01;
shapes = (
{
closed = 1;
nodes = (
(64,701,o),
(55,683,qs),
(42,656,o),
(50,639,qs),
(59,621,o),
(78,640,qs),
(93,655,o),
(215,639,o),
(230,621,qs),
(251,595,o),
(238,499,o),
(206,440,qs),
(175,382,o),
(54,225,o),
(30,212,qs),
(3,196,o),
(12,183,qs),
(32,152,o),
(187,149,qs),
(270,147,o),
(310,157,o),
(339,186,qs),
(373,220,o),
(371,272,o),
(335,264,qs),
(306,256,o),
(286,268,qs),
(267,278,o),
(242,286,qs),
(225,292,o),
(226,302,o),
(244,326,q),
(244,327,o),
(245,327,q),
(265,353,o),
(302,457,o),
(322,558,o),
(325,643,o),
(311,651,qs),
(297,660,o),
(304,683,qs),
(312,707,o),
(286,734,q),
(284,735,o),
(281,739,qs),
(268,752,o),
(250,758,o),
(218,753,o),
(170,740,qs),
(160,738,o),
(155,736,q),
(107,724,o)
);
}
);
width = 382;
}
);
note = two;
unicode = 50;
},
{
glyphname = three;
layers = (
{
layerId = m01;
shapes = (
{
closed = 1;
nodes = (
(25,686,o),
(5,653,o),
(15,643,qs),
(24,634,o),
(49,636,o),
(73,648,qs),
(105,663,o),
(139,675,o),
(169,681,o),
(189,668,o),
(207,647,o),
(219,626,qs),
(234,600,o),
(249,558,o),
(245,552,qs),
(237,539,o),
(144,498,o),
(103,490,qs),
(61,480,o),
(62,465,qs),
(65,443,o),
(142,432,qs),
(216,422,o),
(259,399,o),
(263,368,qs),
(267,332,o),
(216,278,qs),
(184,244,o),
(146,223,o),
(115,222,qs),
(57,221,o),
(33,197,o),
(60,168,qs),
(77,149,o),
(103,140,o),
(147,146,o),
(205,161,qs),
(258,175,o),
(320,223,o),
(337,262,qs),
(357,310,o),
(353,383,o),
(329,434,qs),
(311,471,o),
(306,507,o),
(316,538,qs),
(333,587,o),
(328,636,qs),
(325,671,o),
(304,700,o),
(266,723,qs),
(215,755,o),
(168,759,o),
(112,736,qs),
(77,722,o)
);
}
);
width = 365;
}
);
note = three;
unicode = 51;
},
{
glyphname = four;
layers = (
{
layerId = m01;
shapes = (
{
closed = 1;
nodes = (
(40,661,qs),
(29,586,o),
(15,508,q),
(3,458,o),
(17,442,qs),
(30,425,o),
(121,405,o),
(184,404,qs),
(255,404,l),
(255,284,ls),
(255,165,o),
(265,156,q),
(270,150,o),
(300,175,o),
(334,223,o),
(345,248,qs),
(361,287,o),
(378,397,qs),
(379,410,o),
(407,608,qs),
(417,673,o),
(414,719,o),
(400,740,qs),
(381,769,o),
(329,776,o),
(317,752,qs),
(304,727,o),
(297,619,qs),
(288,508,o),
(272,495,qs),
(255,479,o),
(178,487,qs),
(100,495,l),
(106,560,ls),
(126,776,o),
(91,784,qs),
(82,786,o),
(65,782,o),
(62,777,qs),
(53,759,o)
);
}
);
width = 426;
}
);
note = four;
unicode = 52;
},
{
glyphname = five;
layers = (
{
layerId = m01;
shapes = (
{
closed = 1;
nodes = (
(75,583,o),
(75,551,qs),
(75,530,o),
(107,480,o),
(146,440,qs),
(186,399,o),
(211,357,o),
(206,319,o),
(184,284,qs),
(167,257,o),
(85,214,o),
(66,221,qs),
(50,228,o),
(11,189,o),
(10,168,qs),
(10,152,o),
(84,150,o),
(128,165,qs),
(182,183,o),
(264,256,o),
(284,303,qs),
(312,370,o),
(298,435,o),
(244,490,qs),
(198,535,o),
(181,569,o),
(187,603,qs),
(191,628,o),
(194,646,o),
(204,677,o),
(207,684,o),
(224,698,o),
(232,698,o),
(260,699,o),
(279,696,o),
(302,692,qs),
(340,687,o),
(364,687,qs),
(436,686,o),
(394,734,qs),
(375,755,o),
(312,772,o),
(222,781,qs),
(168,786,o),
(138,781,o),
(128,764,qs),
(113,736,o)
);
}
);
width = 420;
}
);
note = five;
unicode = 53;
},
{
glyphname = six;
layers = (
{
layerId = m01;
shapes = (
{
closed = 1;
nodes = (
(105,577,qs),
(85,518,o),
(57,473,qs),
(27,424,o),
(3,266,o),
(19,226,qs),
(53,144,o),
(190,138,o),
(294,273,o),
(285,369,qs),
(280,430,o),
(239,475,o),
(188,475,qs),
(143,475,o),
(136,519,o),
(170,578,qs),
(210,647,o),
(210,653,qs),
(210,662,o),
(244,705,qs),
(268,737,o),
(268,774,o),
(243,774,qs),
(236,774,o),
(197,734,o),
(176,706,qs),
(131,643,o)
);
},
{
closed = 1;
nodes = (
(221,273,o),
(197,248,qs),
(167,216,o),
(131,219,o),
(113,255,qs),
(97,284,o),
(91,390,o),
(104,403,qs),
(112,412,o),
(201,398,o),
(214,386,qs),
(233,367,o)
);
}
);
width = 296;
}
);
note = six;
unicode = 54;
},
{
glyphname = seven;
layers = (
{
layerId = m01;
shapes = (
{
closed = 1;
nodes = (
(161,742,qs),
(104,747,o),
(42,741,o),
(20,723,o),
(13,700,qs),
(7,682,o),
(22,662,o),
(54,645,qs),
(87,628,o),
(135,624,o),
(193,632,qs),
(281,644,o),
(289,638,qs),
(294,633,o),
(199,439,o),
(96,212,o),
(96,175,qs),
(96,159,o),
(112,150,o),
(139,153,qs),
(173,156,o),
(206,205,o),
(265,336,qs),
(304,429,o),
(304,443,qs),
(304,459,o),
(315,469,q),
(326,475,o),
(434,690,o),
(434,705,qs),
(434,732,o),
(351,760,o),
(310,747,qs),
(277,734,o)
);
}
);
width = 444;
}
);
note = seven;
unicode = 55;
},
{
glyphname = eight;
layers = (
{
layerId = m01;
shapes = (
{
closed = 1;
nodes = (
(89,546,o),
(146,503,qs),
(187,474,l),
(128,418,ls),
(75,369,o),
(3,221,o),
(11,177,qs),
(18,142,o),
(90,99,o),
(183,99,o),
(232,119,q),
(263,135,o),
(290,166,o),
(304,225,o),
(310,290,qs),
(315,352,o),
(310,409,o),
(297,435,qs),
(283,460,o),
(280,494,o),
(288,517,qs),
(306,570,o),
(294,648,o),
(262,687,qs),
(238,717,o),
(204,735,o),
(174,735,qs),
(125,735,o),
(97,705,qs),
(59,665,o)
);
},
{
closed = 1;
nodes = (
(227,557,o),
(215,536,qs),
(213,533,o),
(183,547,o),
(164,561,qs),
(127,590,o),
(115,655,o),
(142,686,qs),
(165,711,o),
(214,705,o),
(224,675,qs),
(233,653,o)
);
},
{
closed = 1;
nodes = (
(214,205,o),
(172,183,qs),
(150,171,o),
(122,170,o),
(101,179,qs),
(64,195,o),
(81,263,o),
(142,335,qs),
(207,411,o),
(250,408,o),
(250,327,qs),
(250,271,o)
);
}
);
width = 323;
}
);
note = eight;
unicode = 56;
},
{
glyphname = nine;
layers = (
{
layerId = m01;
shapes = (
{
closed = 1;
nodes = (
(71,570,o),
(71,508,qs),
(71,468,o),
(148,371,o),
(180,371,qs),
(209,371,o),
(227,358,qs),
(232,355,o),
(234,346,o),
(223,330,o),
(201,309,o),
(181,291,qs),
(79,202,o),
(4,125,o),
(11,114,qs),
(34,78,o),
(97,129,qs),
(153,171,o),
(186,194,qs),
(240,230,o),
(354,409,o),
(413,584,o),
(394,617,qs),
(386,632,o),
(370,673,qs),
(363,692,o),
(334,714,o),
(306,722,qs),
(253,736,o),
(246,748,qs),
(234,767,o),
(159,752,o),
(133,726,qs),
(108,698,o)
);
},
{
closed = 1;
nodes = (
(276,544,qs),
(272,443,l),
(218,439,ls),
(183,436,o),
(156,447,o),
(141,468,qs),
(116,506,o),
(141,602,o),
(185,640,qs),
(226,676,o),
(249,683,o),
(264,665,qs),
(280,647,o)
);
}
);
width = 411;
}
);
note = nine;
unicode = 57;
},
{
glyphname = colon;
layers = (
{
layerId = m01;
shapes = (
{
closed = 1;
nodes = (
(61,500,o),
(61,471,qs),
(61,411,o),
(127,389,o),
(163,438,qs),
(193,477,o),
(197,546,o),
(171,549,qs),
(146,554,o),
(104,534,qs),
(76,522,o)
);
},
{
closed = 1;
nodes = (
(7,97,o),
(35,60,o),
(62,60,qs),
(82,60,o),
(139,133,o),
(139,160,qs),
(139,189,o),
(104,219,o),
(56,207,o),
(36,182,qs),
(15,155,o)
);
}
);
width = 205;
}
);
note = colon;
unicode = 58;
},
{
glyphname = semicolon;
lastChange = "2022-08-09 20:04:20 +0000";
layers = (
{
layerId = m01;
shapes = (
{
closed = 1;
nodes = (
(108,494,o),
(112,438,o),
(136,417,qs),
(153,401,o),
(170,400,o),
(193,416,qs),
(207,425,o),
(218,445,qs),
(243,491,o),
(237,531,qs),
(233,555,o),
(216,552,qs),
(199,548,o),
(175,544,qs),
(144,538,o)
);
},
{
closed = 1;
nodes = (
(99,105,o),
(94,86,qs),
(76,33,o),
(86,-33,o),
(111,-28,qs),
(133,-23,o),
(192,138,o),
(189,184,qs),
(186,237,o),
(141,248,o),
(128,199,qs),
(124,186,o)
);
}
);
width = 248;
}
);
note = semicolon;
unicode = 59;
},
{
glyphname = less;
layers = (
{
layerId = m01;
shapes = (
{
closed = 1;
nodes = (
(90,513,o),
(67,490,qs),
(10,431,l),
(61,390,ls),
(111,347,o),
(325,242,o),
(362,242,qs),
(398,242,o),
(417,274,o),
(404,310,qs),
(389,345,o),
(363,345,qs),
(338,345,o),
(181,424,o),
(181,436,qs),
(181,446,o),
(355,578,o),
(419,617,qs),
(460,642,o),
(472,693,o),
(439,701,qs),
(418,707,o),
(400,709,o),
(355,692,o),
(310,664,o),
(253,629,qs),
(200,596,o)
);
}
);
width = 477;
}
);
note = less;
unicode = 60;
},
{
glyphname = equal;
layers = (
{
layerId = m01;
shapes = (
{
closed = 1;
nodes = (
(33,492,o),
(24,477,o),
(28,474,qs),
(39,463,o),
(233,465,qs),
(361,468,o),
(430,477,o),
(439,492,qs),
(448,507,o),
(442,526,o),
(403,557,o),
(344,566,o),
(260,566,qs),
(166,565,o),
(113,554,o),
(73,525,qs),
(56,513,o)
);
},
{
closed = 1;
nodes = (
(52,373,o),
(30,351,qs),
(-1,318,o),
(18,307,qs),
(44,292,o),
(245,299,qs),
(450,306,o),
(456,312,qs),
(462,318,o),
(451,355,q),
(449,359,o),
(448,362,qs),
(440,383,o),
(419,388,qs),
(390,395,o),
(193,388,qs),
(103,385,o)
);
}
);
width = 468;
}
);
note = equal;
unicode = 61;
},
{
glyphname = greater;
layers = (
{
layerId = m01;
shapes = (
{
closed = 1;
nodes = (
(17,562,o),
(46,543,qs),
(80,518,o),
(176,470,qs),
(221,447,o),
(235,438,qs),
(266,418,o),
(251,399,qs),
(237,381,o),
(136,322,qs),
(76,287,o),
(37,253,o),
(39,236,qs),
(45,199,o),
(134,214,o),
(232,269,qs),
(326,322,o),
(381,365,qs),
(486,446,o),
(432,468,qs),
(424,471,o),
(413,486,o),
(413,495,qs),
(413,503,o),
(404,514,o),
(398,514,qs),
(389,514,o),
(306,553,qs),
(237,589,o),
(154,613,qs),
(81,634,o),
(70,645,qs),
(57,657,o),
(39,655,o),
(26,642,qs),
(5,621,o)
);
}
);
width = 459;
}
);
note = greater;
unicode = 62;
},
{
glyphname = question;
layers = (
{
layerId = m01;
shapes = (
{
closed = 1;
nodes = (
(3,708,o),
(22,678,qs),
(42,649,o),
(69,644,o),
(108,664,qs),
(129,675,o),
(157,678,o),
(172,670,qs),
(188,661,o),
(198,627,o),
(198,579,qs),
(198,525,o),
(184,492,o),
(150,465,qs),
(102,429,o),
(81,421,qs),
(62,415,o),
(59,338,qs),
(52,238,o),
(52,235,qs),
(48,210,o),
(86,192,qs),
(111,179,o),
(130,180,o),
(139,195,q),
(154,214,o),
(164,292,qs),
(173,370,o),
(194,387,qs),
(219,407,o),
(289,578,o),
(289,619,qs),
(289,664,o),
(251,746,o),
(225,761,qs),
(203,773,o),
(115,772,o),
(73,760,qs),
(26,746,o)
);
},
{
closed = 1;
nodes = (
(40,-8,o),
(69,-38,q),
(102,0,ls),
(131,33,o),
(128,92,o),
(99,96,qs),
(70,100,o),
(42,60,qs),
(12,18,l)
);
}
);
width = 299;
}
);
note = question;
unicode = 63;
},
{
glyphname = at;
layers = (
{
layerId = m01;
shapes = (
{
closed = 1;
nodes = (
(87,538,o),
(51,471,qs),
(20,415,o),
(8,360,o),
(12,295,qs),
(17,200,l),
(100,123,ls),
(172,58,o),
(246,27,o),
(330,27,qs),
(385,27,o),
(425,40,o),
(452,68,qs),
(485,102,o),
(515,206,o),
(516,296,qs),
(516,372,o),
(457,520,o),
(407,574,qs),
(370,611,o),
(333,631,o),
(300,630,qs),
(251,630,o),
(205,616,qs),
(155,602,o)
);
},
{
closed = 1;
nodes = (
(432,447,o),
(439,427,qs),
(455,379,o),
(454,213,o),
(438,183,qs),
(423,155,o),
(289,73,o),
(259,73,qs),
(238,73,o),
(100,174,o),
(100,188,q),
(102,199,o),
(142,179,qs),
(171,166,o),
(209,166,o),
(266,181,qs),
(325,196,o),
(355,196,o),
(366,181,qs),
(383,159,o),
(404,168,qs),
(429,177,o),
(423,288,o),
(396,316,qs),
(384,328,o),
(351,386,o),
(339,414,qs),
(318,464,o),
(294,483,o),
(249,486,qs),
(191,490,o),
(127,434,o),
(105,362,qs),
(98,335,o),
(78,294,o),
(73,294,q),
(63,298,o),
(68,357,o),
(98,446,o),
(116,471,qs),
(170,552,o),
(308,578,o),
(372,519,qs),
(393,501,o)
);
},
{
closed = 1;
nodes = (
(255,228,o),
(227,222,qs),
(206,216,o),
(186,228,o),
(173,253,qs),
(152,290,o),
(152,310,qs),
(152,325,o),
(240,410,o),
(253,410,qs),
(265,410,o),
(321,330,o),
(321,317,qs),
(321,295,o)
);
}
);
width = 526;
}
);
note = at;
unicode = 64;
},
{
glyphname = A;
layers = (
{
layerId = m01;
shapes = (
{
closed = 1;
nodes = (
(160,606,qs),
(160,579,o),
(147,551,qs),
(144,544,o),
(25,180,o),
(17,164,qs),
(3,139,o),
(15,131,qs),
(32,122,o),
(65,152,qs),
(78,165,o),
(116,224,o),
(128,253,qs),
(146,292,o),
(169,319,o),
(180,314,qs),
(201,306,o),
(249,306,qs),
(298,306,l),
(306,239,ls),
(313,187,o),
(348,131,o),
(366,143,qs),
(383,154,o),
(376,341,o),
(354,434,qs),
(347,464,o),
(317,594,o),
(313,612,qs),
(298,678,o),
(285,694,qs),
(269,714,o),
(210,700,o),
(188,670,qs),
(160,632,o)
);
},
{
closed = 1;
nodes = (
(270,417,o),
(240,417,qs),
(198,419,o),
(196,423,qs),
(191,433,o),
(244,592,o),
(252,592,qs),
(264,592,o),
(280,491,o),
(280,461,qs),
(282,430,o)
);
}
);
width = 390;
}
);
note = A;
unicode = 65;
},
{
glyphname = B;
layers = (
{
layerId = m01;
shapes = (
{
closed = 1;
nodes = (
(86,639,o),
(81,626,qs),
(67,595,o),
(55,586,q),
(49,583,o),
(41,533,o),
(41,501,qs),
(41,423,o),
(29,362,qs),
(18,313,o),
(12,221,qs),
(8,183,o),
(13,148,o),
(22,142,o),
(40,142,qs),
(87,142,o),
(185,131,qs),
(269,123,o),
(304,129,o),
(320,155,qs),
(345,195,o),
(354,302,o),
(334,339,qs),
(318,370,o),
(320,390,o),
(345,414,qs),
(414,483,o),
(376,558,qs),
(355,603,o),
(338,636,qs),
(317,681,o),
(200,705,o),
(134,677,qs),
(117,669,o)
);
},
{
closed = 1;
nodes = (
(314,540,o),
(302,516,qs),
(290,494,o),
(207,462,o),
(162,462,qs),
(130,462,o),
(120,476,o),
(123,518,qs),
(125,571,o),
(136,590,qs),
(147,606,o),
(216,603,o),
(256,584,qs),
(298,565,o)
);
},
{
closed = 1;
nodes = (
(290,244,o),
(252,199,o),
(177,179,o),
(132,188,qs),
(99,195,o),
(88,212,o),
(90,255,qs),
(96,326,o),
(101,349,qs),
(107,377,o),
(125,385,o),
(169,378,qs),
(228,370,o),
(259,338,qs),
(286,307,o)
);
}
);
width = 399;
}
);
note = B;
unicode = 66;
},
{
glyphname = C;
layers = (
{
layerId = m01;
shapes = (
{
closed = 1;
nodes = (
(93,589,o),
(62,531,qs),
(23,457,o),
(3,299,o),
(26,249,qs),
(50,200,o),
(153,112,o),
(187,112,qs),
(222,112,o),
(261,99,qs),
(296,85,o),
(317,103,qs),
(337,121,o),
(362,130,qs),
(386,138,o),
(378,158,qs),
(370,182,o),
(370,199,qs),
(370,210,o),
(353,215,o),
(330,210,qs),
(289,203,o),
(167,234,o),
(147,257,qs),
(125,281,o),
(122,409,o),
(142,448,qs),
(177,514,o),
(342,620,o),
(403,614,qs),
(408,614,o),
(413,614,qs),
(436,615,o),
(428,631,qs),
(417,653,o),
(377,665,qs),
(323,681,o),
(254,679,o),
(208,660,qs),
(140,631,o)
);
}
);
width = 440;
}
);
note = C;
unicode = 67;
},
{
glyphname = D;
layers = (
{
layerId = m01;
shapes = (
{
closed = 1;
nodes = (
(113,627,o),
(97,608,qs),
(72,577,o),
(49,501,o),
(30,394,qs),
(14,300,o),
(8,216,o),
(16,201,qs),
(22,190,o),
(39,181,o),
(45,186,qs),
(59,195,o),
(171,195,qs),
(265,196,o),
(342,228,o),
(386,286,qs),
(419,329,o),
(435,440,o),
(416,481,q),
(398,513,o),
(379,562,qs),
(364,603,o),
(322,636,o),
(271,645,qs),
(233,652,o),
(197,661,q),
(178,668,o),
(157,661,qs),
(148,659,o)
);
},
{
closed = 1;
nodes = (
(312,504,qs),
(342,483,o),
(353,457,o),
(347,425,qs),
(338,375,o),
(267,309,o),
(209,296,qs),
(183,290,o),
(135,285,o),
(130,288,qs),
(117,296,o),
(132,515,o),
(147,543,qs),
(158,563,o),
(181,566,o),
(225,552,qs),
(273,534,o)
);
}
);
width = 439;
}
);
note = D;
unicode = 68;
},
{
glyphname = E;
layers = (
{
layerId = m01;
shapes = (
{
closed = 1;
nodes = (
(195,677,q),
(187,680,o),
(166,674,o),
(160,668,q),
(151,655,o),
(101,421,o),
(80,286,qs),
(71,233,o),
(51,179,o),
(33,162,qs),
(10,141,o),
(10,128,qs),
(9,99,o),
(138,99,qs),
(284,99,o),
(403,121,o),
(429,155,qs),
(453,183,o),
(455,198,o),
(437,212,qs),
(412,229,o),
(372,221,qs),
(355,217,o),
(184,191,o),
(163,183,qs),
(143,177,o),
(137,193,o),
(141,238,qs),
(148,297,o),
(171,339,o),
(199,342,qs),
(262,349,o),
(301,358,qs),
(389,379,o),
(355,413,qs),
(340,428,o),
(280,414,qs),
(222,400,o),
(194,408,qs),
(176,413,o),
(170,440,o),
(175,499,qs),
(184,585,o),
(194,595,qs),
(205,606,o),
(308,610,qs),
(482,618,o),
(482,662,qs),
(482,685,o),
(416,710,o),
(315,706,o),
(268,690,qs),
(218,672,o)
);
}
);
width = 492;
}
);
note = E;
unicode = 69;
},
{
glyphname = F;
layers = (
{
layerId = m01;
shapes = (
{
closed = 1;
nodes = (
(72,475,o),
(52,396,qs),
(20,275,o),
(6,190,o),
(16,170,qs),
(25,148,o),
(41,138,o),
(62,153,o),
(84,178,qs),
(117,218,o),
(117,262,qs),
(117,319,o),
(155,358,o),
(217,365,qs),
(263,371,o),
(337,391,o),
(377,415,o),
(373,426,qs),
(370,436,o),
(320,441,o),
(261,438,qs),
(154,434,l),
(163,503,ls),
(166,529,o),
(172,559,o),
(184,584,o),
(197,595,o),
(223,599,o),
(252,596,o),
(277,592,qs),
(355,581,o),
(381,595,qs),
(389,599,o),
(424,616,o),
(429,618,qs),
(437,622,o),
(448,646,o),
(448,658,qs),
(448,678,o),
(439,683,qs),
(425,690,o),
(302,692,qs),
(156,695,l),
(129,643,ls),
(118,621,o)
);
}
);
width = 458;
}
);
note = F;
unicode = 70;
},
{
glyphname = G;
layers = (
{
layerId = m01;
shapes = (
{
closed = 1;
nodes = (
(125,692,o),
(72,612,qs),
(26,541,o),
(4,417,o),
(20,329,qs),
(35,249,o),
(93,144,o),
(124,140,qs),
(156,135,o),
(181,117,qs),
(205,101,o),
(319,97,o),
(346,112,qs),
(369,124,o),
(406,197,o),
(415,248,qs),
(424,298,o),
(443,330,q),
(452,342,o),
(461,380,o),
(459,395,qs),
(458,407,o),
(454,417,o),
(447,426,o),
(422,429,o),
(395,430,o),
(364,430,qs),
(312,430,o),
(273,422,o),
(273,412,qs),
(273,397,o),
(307,376,o),
(351,362,qs),
(374,356,o),
(388,333,o),
(381,289,o),
(366,242,qs),
(356,212,o),
(332,194,o),
(294,187,qs),
(205,171,o),
(108,262,o),
(107,362,qs),
(107,435,o),
(116,533,o),
(138,607,o),
(180,653,o),
(239,681,o),
(284,691,qs),
(370,709,o),
(425,697,qs),
(472,687,o),
(502,697,o),
(494,722,qs),
(487,746,o),
(501,755,qs),
(515,764,o),
(499,782,qs),
(484,799,o),
(328,798,o),
(262,781,qs),
(206,765,o)
);
}
);
width = 518;
}
);
note = G;
unicode = 71;
},
{
glyphname = H;
layers = (
{
layerId = m01;
shapes = (
{
closed = 1;
nodes = (
(385,671,qs),
(385,614,o),
(376,542,qs),
(367,486,l),
(289,481,ls),
(211,476,o),
(181,469,q),
(171,468,o),
(156,465,o),
(147,478,o),
(142,494,o),
(143,530,o),
(148,572,o),
(152,605,qs),
(164,688,o),
(158,713,qs),
(151,741,o),
(112,710,qs),
(90,694,o),
(73,637,o),
(63,544,qs),
(46,400,o),
(28,326,qs),
(12,259,o),
(8,145,o),
(21,126,qs),
(29,114,o),
(47,112,o),
(65,121,qs),
(93,133,o),
(126,250,o),
(126,332,qs),
(126,359,o),
(135,401,o),
(141,405,qs),
(152,413,o),
(229,413,qs),
(302,413,o),
(317,426,qs),
(324,432,o),
(346,435,o),
(354,431,qs),
(370,425,o),
(376,362,o),
(360,352,qs),
(347,344,o),
(347,229,o),
(360,195,qs),
(372,165,o),
(382,168,qs),
(410,176,o),
(450,501,qs),
(462,604,o),
(470,639,qs),
(476,664,o),
(465,695,o),
(442,721,qs),
(428,738,o),
(399,757,o),
(395,753,qs),
(387,745,o)
);
}
);
width = 484;
}
);
note = H;
unicode = 72;
},
{
glyphname = I;
layers = (
{
layerId = m01;
shapes = (
{
closed = 1;
nodes = (
(16,260,o),
(12,206,qs),
(9,145,o),
(15,126,o),
(36,132,qs),
(57,139,o),
(71,142,o),
(97,157,o),
(103,160,o),
(121,187,o),
(124,198,o),
(140,247,o),
(147,276,o),
(156,314,qs),
(190,465,o),
(225,564,qs),
(256,660,o),
(252,673,qs),
(250,678,o),
(215,689,o),
(194,691,qs),
(157,694,o),
(136,684,o),
(127,660,qs),
(95,571,o)
);
}
);
width = 262;
}
);
note = I;
unicode = 73;
},
{
glyphname = J;
layers = (
{
layerId = m01;
shapes = (
{
closed = 1;
nodes = (
(413,668,qs),
(412,580,o),
(303,288,o),
(244,213,qs),
(220,182,o),
(157,176,o),
(111,225,o),
(109,266,qs),
(106,304,o),
(100,313,q),
(92,320,o),
(48,272,o),
(10,205,o),
(10,188,qs),
(10,164,o),
(57,119,o),
(125,95,o),
(200,89,o),
(227,104,qs),
(242,112,o),
(289,158,o),
(307,182,qs),
(353,242,o),
(363,242,qs),
(383,242,o),
(434,401,o),
(455,529,qs),
(478,665,o),
(481,721,o),
(465,740,qs),
(447,758,o),
(438,757,o),
(427,738,qs),
(413,711,o)
);
}
);
width = 490;
}
);
note = J;
unicode = 74;
},
{
glyphname = K;
layers = (
{
layerId = m01;
shapes = (
{
closed = 1;
nodes = (
(50,535,o),
(12,231,qs),
(6,187,o),
(14,156,qs),
(24,118,o),
(46,132,qs),
(66,144,o),
(122,283,o),
(129,336,qs),
(139,410,o),
(148,410,qs),
(151,410,o),
(178,369,o),
(192,342,qs),
(228,272,o),
(343,157,o),
(359,174,qs),
(369,184,o),
(369,199,o),
(359,213,qs),
(332,252,o),
(227,434,o),
(227,443,qs),
(227,449,o),
(271,489,o),
(302,512,qs),
(375,565,o),
(474,655,o),
(474,669,qs),
(474,679,o),
(470,683,q),
(452,708,o),
(310,601,qs),
(257,562,o),
(175,508,o),
(171,510,qs),
(161,516,o),
(176,648,o),
(188,664,qs),
(198,678,o),
(205,718,qs),
(209,744,o),
(203,766,o),
(188,774,qs),
(167,785,o),
(155,785,o),
(128,774,qs),
(98,762,o)
);
}
);
width = 484;
}
);
note = K;
unicode = 75;
},
{
glyphname = L;
layers = (
{
layerId = m01;
shapes = (
{
closed = 1;
nodes = (
(71,633,o),
(48,443,qs),
(27,270,o),
(16,229,qs),
(3,185,o),
(26,161,o),
(407,155,o),
(413,166,qs),
(421,178,o),
(402,201,o),
(353,218,o),
(317,222,qs),
(240,232,o),
(198,245,qs),
(156,261,o),
(133,261,qs),
(114,261,o),
(116,287,qs),
(118,300,o),
(132,427,qs),
(148,561,o),
(160,612,qs),
(173,669,o),
(163,719,o),
(135,734,qs),
(110,747,o),
(95,731,qs),
(85,718,o)
);
}
);
width = 427;
}
);
note = L;
unicode = 76;
},
{
glyphname = M;
layers = (
{
layerId = m01;
shapes = (
{
closed = 1;
nodes = (
(114,627,qs),
(96,601,o),
(38,380,o),
(21,275,qs),
(9,201,o),
(11,163,o),
(29,144,qs),
(54,119,o),
(66,131,qs),
(74,141,o),
(127,352,o),
(142,436,qs),
(146,460,o),
(159,493,o),
(164,492,qs),
(177,488,o),
(186,373,qs),
(193,285,o),
(225,189,o),
(255,164,qs),
(263,157,o),
(276,154,o),
(292,164,o),
(309,184,o),
(333,226,o),
(361,280,o),
(381,322,qs),
(412,384,o),
(419,384,qs),
(421,384,o),
(427,364,o),
(433,327,o),
(434,306,qs),
(437,274,o),
(454,208,o),
(463,194,qs),
(477,172,o),
(492,167,o),
(503,179,qs),
(515,190,o),
(525,290,o),
(528,418,qs),
(535,632,o),
(527,668,q),
(526,670,o),
(525,673,qs),
(515,695,o),
(497,696,qs),
(482,697,o),
(482,678,qs),
(482,661,o),
(326,365,o),
(307,347,qs),
(293,333,o),
(290,335,qs),
(285,338,o),
(264,417,qs),
(248,478,o),
(237,552,qs),
(223,634,o),
(195,666,qs),
(176,686,o),
(159,692,qs),
(132,703,o),
(132,677,qs),
(132,655,o)
);
}
);
width = 540;
}
);
note = M;
unicode = 77;
},
{
glyphname = N;
layers = (
{
layerId = m01;
shapes = (
{
closed = 1;
nodes = (
(57,388,o),
(39,327,qs),
(32,304,o),
(24,275,o),
(15,244,o),
(12,228,o),
(9,210,o),
(11,201,o),
(14,191,o),
(21,185,o),
(28,180,o),
(35,177,q),
(89,146,o),
(102,212,qs),
(110,251,o),
(145,401,o),
(150,427,qs),
(156,457,o),
(171,501,o),
(175,501,qs),
(185,501,o),
(241,266,o),
(241,227,qs),
(241,178,o),
(307,156,o),
(341,194,qs),
(370,225,o),
(403,334,o),
(431,495,qs),
(434,514,o),
(440,548,qs),
(464,684,o),
(465,729,o),
(446,732,q),
(442,732,o),
(440,732,qs),
(423,735,o),
(405,722,o),
(397,700,qs),
(386,665,o),
(373,644,qs),
(362,624,o),
(339,492,qs),
(315,358,o),
(306,358,qs),
(296,358,o),
(264,494,o),
(254,582,qs),
(244,673,o),
(215,735,o),
(183,735,qs),
(162,735,o),
(143,707,o),
(127,655,qs),
(108,593,o)
);
}
);
width = 474;
}
);
note = N;
unicode = 78;
},
{
glyphname = O;
layers = (
{
layerId = m01;
shapes = (
{
closed = 1;
nodes = (
(70,583,o),
(52,543,qs),
(18,471,o),
(8,415,o),
(14,339,qs),
(21,260,o),
(43,182,o),
(86,137,o),
(133,116,qs),
(207,82,o),
(287,106,o),
(337,177,qs),
(417,295,o),
(433,475,qs),
(437,537,o),
(427,573,o),
(392,612,qs),
(355,655,o),
(326,687,qs),
(302,714,o),
(176,706,o),
(138,675,qs),
(121,660,o)
);
},
{
closed = 1;
nodes = (
(317,597,o),
(326,581,qs),
(347,540,o),
(361,427,o),
(347,418,qs),
(333,409,o),
(333,384,qs),
(333,357,o),
(264,189,o),
(247,175,qs),
(227,159,o),
(161,183,o),
(146,213,qs),
(127,248,o),
(108,343,qs),
(89,434,o),
(112,546,o),
(161,596,qs),
(199,635,o),
(235,646,o),
(273,631,qs),
(286,626,o)
);
}
);
width = 445;
}
);
note = O;
unicode = 79;
},
{
glyphname = P;
layers = (
{
layerId = m01;
shapes = (
{
closed = 1;
nodes = (
(50,635,o),
(50,629,qs),
(50,614,o),
(35,495,qs),
(-5,138,o),
(20,138,qs),
(27,138,o),
(37,145,o),
(37,154,o),
(54,164,o),
(66,166,qs),
(86,169,o),
(98,200,o),
(104,258,qs),
(108,293,o),
(111,324,o),
(119,359,o),
(124,370,o),
(141,383,o),
(156,387,o),
(172,390,qs),
(221,399,o),
(309,505,o),
(309,555,qs),
(309,585,o),
(291,617,o),
(261,642,qs),
(210,682,o),
(153,710,o),
(110,701,o),
(83,677,qs),
(70,664,o)
);
},
{
closed = 1;
nodes = (
(218,567,o),
(218,534,qs),
(218,496,o),
(205,470,o),
(179,456,qs),
(136,434,o),
(113,463,o),
(121,531,qs),
(130,613,o),
(151,638,o),
(190,610,qs),
(206,599,o)
);
}
);
width = 319;
}
);
note = P;
unicode = 80;
},
{
glyphname = Q;
layers = (
{
layerId = m01;
shapes = (
{
closed = 1;
nodes = (
(10,475,o),
(10,361,qs),
(10,323,o),
(53,195,o),
(71,181,qs),
(91,165,o),
(83,132,qs),
(75,100,o),
(93,21,o),
(107,21,qs),
(114,21,o),
(140,47,o),
(150,65,qs),
(177,110,o),
(235,135,qs),
(362,191,o),
(432,353,qs),
(457,412,o),
(471,484,o),
(471,561,qs),
(471,605,o),
(467,654,o),
(458,696,o),
(433,723,o),
(401,745,o),
(371,761,qs),
(321,787,o),
(316,787,qs),
(313,787,o),
(242,752,qs),
(145,702,o)
);
},
{
closed = 1;
nodes = (
(399,441,o),
(350,340,qs),
(296,229,o),
(283,229,qs),
(246,229,o),
(275,323,qs),
(290,374,o),
(281,392,qs),
(271,411,o),
(246,374,qs),
(227,345,o),
(210,345,qs),
(195,345,o),
(180,323,qs),
(172,310,o),
(161,307,o),
(152,316,qs),
(143,324,o),
(149,376,o),
(166,438,qs),
(202,564,o),
(320,655,o),
(375,597,qs),
(410,560,o)
);
}
);
width = 481;
}
);
note = Q;
unicode = 81;
},
{
glyphname = R;
layers = (
{
layerId = m01;
shapes = (
{
closed = 1;
nodes = (
(79,625,qs),
(60,526,o),
(37,449,qs),
(16,381,o),
(6,177,o),
(23,161,qs),
(38,146,o),
(67,166,qs),
(84,178,o),
(105,224,o),
(115,273,qs),
(122,308,o),
(141,358,o),
(147,358,qs),
(164,358,o),
(308,178,qs),
(320,162,o),
(353,151,o),
(376,164,o),
(376,179,qs),
(376,195,o),
(305,292,qs),
(262,349,o),
(239,394,o),
(247,405,qs),
(261,423,o),
(279,423,qs),
(303,423,o),
(380,503,o),
(390,540,qs),
(400,573,o),
(396,612,o),
(377,649,qs),
(351,707,o),
(278,751,o),
(202,757,qs),
(148,762,o),
(115,756,o),
(106,740,qs),
(92,709,o)
);
},
{
closed = 1;
nodes = (
(323,579,o),
(318,556,qs),
(308,521,o),
(297,505,q),
(281,487,o),
(191,449,o),
(180,456,qs),
(170,462,o),
(172,523,o),
(184,590,o),
(206,644,o),
(216,644,qs),
(223,644,o),
(273,617,qs),
(309,599,o)
);
}
);
width = 408;
}
);
note = R;
unicode = 82;
},
{
glyphname = S;
layers = (
{
layerId = m01;
shapes = (
{
closed = 1;
nodes = (
(129,694,o),
(102,662,qs),
(53,606,o),
(37,517,o),
(67,457,qs),
(80,430,o),
(135,359,o),
(161,335,qs),
(222,281,l),
(179,240,ls),
(149,213,o),
(128,207,o),
(97,234,o),
(77,229,o),
(49,203,qs),
(3,161,o),
(20,122,o),
(92,103,qs),
(181,78,o),
(298,166,o),
(311,268,qs),
(319,324,o),
(294,388,o),
(248,430,qs),
(217,458,o),
(207,489,o),
(211,543,qs),
(218,617,l),
(279,625,ls),
(391,640,o),
(406,679,qs),
(416,704,o),
(433,717,qs),
(441,723,o),
(448,740,o),
(444,745,q),
(434,762,o),
(327,757,o),
(241,735,qs),
(180,720,o)
);
}
);
width = 456;
}
);
note = S;
unicode = 83;
},
{
glyphname = T;
layers = (
{
layerId = m01;
shapes = (
{
closed = 1;
nodes = (
(65,691,qs),
(51,690,o),
(41,689,qs),
(-3,683,o),
(15,662,qs),
(43,630,o),
(162,605,qs),
(242,589,o),
(242,587,qs),
(242,581,o),
(215,495,qs),
(194,422,o),
(179,167,o),
(193,127,qs),
(204,98,o),
(222,100,qs),
(248,104,o),
(263,157,qs),
(279,205,o),
(293,375,qs),
(300,456,o),
(310,522,o),
(320,586,o),
(349,598,o),
(376,605,o),
(410,605,qs),
(487,605,o),
(502,625,qs),
(522,648,o),
(492,682,o),
(448,688,qs),
(374,697,o),
(127,706,o),
(120,700,qs),
(111,691,o)
);
}
);
width = 523;
}
);
note = T;
unicode = 84;
},
{
glyphname = U;
layers = (
{
layerId = m01;
shapes = (
{
closed = 1;
nodes = (
(332,566,qs),
(329,505,o),
(313,383,o),
(306,358,qs),
(286,297,o),
(216,177,o),
(199,177,qs),
(176,177,o),
(135,299,o),
(114,494,o),
(119,591,qs),
(120,638,o),
(121,683,o),
(117,715,o),
(110,722,o),
(102,722,qs),
(81,722,o),
(68,706,qs),
(56,691,o),
(26,495,o),
(17,378,qs),
(10,267,o),
(11,216,o),
(21,161,qs),
(35,98,o),
(82,34,o),
(124,22,qs),
(168,10,o),
(236,40,o),
(287,95,qs),
(337,146,o),
(392,340,o),
(410,521,qs),
(417,596,o),
(422,662,o),
(421,713,o),
(414,726,o),
(406,732,qs),
(382,748,o),
(367,748,qs),
(359,748,o),
(347,739,o),
(345,732,q),
(339,719,o)
);
}
);
width = 432;
}
);
note = U;
unicode = 85;
},
{
glyphname = V;
layers = (
{
layerId = m01;
shapes = (
{
closed = 1;
nodes = (
(238,457,qs),
(219,399,o),
(183,312,o),
(178,310,qs),
(168,307,o),
(122,499,o),
(108,603,qs),
(99,667,o),
(71,722,o),
(48,722,qs),
(27,722,o),
(4,649,o),
(16,619,qs),
(29,581,o),
(43,469,qs),
(65,287,o),
(92,170,o),
(116,155,qs),
(136,142,o),
(157,144,o),
(183,164,qs),
(201,177,o),
(238,234,o),
(251,266,qs),
(301,395,o),
(394,682,o),
(388,718,o),
(382,725,qs),
(362,749,o),
(321,668,qs),
(284,597,o)
);
}
);
width = 401;
}
);
note = V;
unicode = 86;
},
{
glyphname = W;
layers = (
{
layerId = m01;
shapes = (
{
closed = 1;
nodes = (
(68,434,o),
(87,358,qs),
(114,258,o),
(120,179,qs),
(127,125,o),
(135,106,qs),
(147,77,o),
(175,100,qs),
(209,129,o),
(296,320,o),
(296,366,qs),
(296,374,o),
(303,384,o),
(307,384,qs),
(311,384,o),
(323,333,o),
(327,297,qs),
(338,187,o),
(357,121,o),
(384,104,qs),
(408,88,o),
(428,94,o),
(458,127,qs),
(481,153,o),
(524,247,o),
(554,340,qs),
(610,513,o),
(648,601,qs),
(679,674,o),
(680,711,qs),
(681,746,o),
(654,723,qs),
(637,709,o),
(520,477,o),
(492,401,qs),
(479,368,o),
(456,319,o),
(452,319,qs),
(440,319,o),
(433,395,qs),
(400,699,o),
(387,714,qs),
(376,725,o),
(296,664,o),
(296,645,qs),
(296,624,o),
(275,599,qs),
(255,571,o),
(229,482,qs),
(216,435,o),
(205,409,qs),
(185,360,o),
(171,375,qs),
(165,381,o),
(141,561,qs),
(120,739,o),
(107,743,qs),
(98,745,o),
(10,710,o),
(10,703,qs),
(10,693,o)
);
}
);
width = 690;
}
);
note = W;
unicode = 87;
},
{
glyphname = X;
layers = (
{
layerId = m01;
shapes = (
{
closed = 1;
nodes = (
(37,600,ls),
(61,511,o),
(96,432,qs),
(123,376,o),
(113,311,o),
(65,236,qs),
(51,215,o),
(41,200,o),
(39,183,o),
(46,176,o),
(57,169,qs),
(87,147,o),
(134,160,o),
(155,196,qs),
(167,215,o),
(189,238,o),
(193,235,qs),
(203,229,o),
(227,157,qs),
(238,120,o),
(247,101,qs),
(266,62,o),
(288,84,qs),
(302,99,o),
(362,99,o),
(362,112,qs),
(362,124,o),
(296,353,o),
(283,386,qs),
(275,407,o),
(280,448,o),
(297,490,qs),
(351,621,o),
(375,713,o),
(362,735,qs),
(348,761,o),
(339,761,qs),
(318,761,o),
(273,705,o),
(254,657,qs),
(243,629,o),
(218,585,o),
(213,583,qs),
(207,581,o),
(181,626,o),
(168,660,qs),
(124,774,o),
(104,774,q),
(90,770,o),
(53,736,qs),
(10,700,l)
);
}
);
width = 379;
}
);
note = X;
unicode = 88;
},
{
glyphname = Y;
layers = (
{
layerId = m01;
shapes = (
{
closed = 1;
nodes = (
(70,581,o),
(109,512,qs),
(168,404,l),
(136,306,ls),
(86,157,o),
(93,122,qs),
(100,89,o),
(158,117,qs),
(185,130,o),
(212,175,o),
(236,251,qs),
(307,478,o),
(363,612,qs),
(373,635,o),
(379,655,qs),
(411,755,o),
(367,755,qs),
(352,755,o),
(318,708,o),
(289,648,qs),
(284,638,o),
(280,628,qs),
(224,515,o),
(206,516,qs),
(190,516,o),
(184,594,qs),
(180,659,o),
(139,723,qs),
(99,787,o),
(89,787,q),
(77,783,o),
(10,746,o),
(10,738,qs),
(11,717,o)
);
}
);
width = 402;
}
);
note = Y;
unicode = 89;
},
{
glyphname = Z;
layers = (
{
layerId = m01;
shapes = (
{
closed = 1;
nodes = (
(202,713,qs),
(151,716,o),
(61,713,o),
(50,708,qs),
(23,698,o),
(18,640,o),
(39,609,qs),
(52,591,o),
(95,584,o),
(182,588,qs),
(221,590,o),
(264,591,o),
(298,586,o),
(307,577,o),
(302,556,o),
(284,530,o),
(267,508,qs),
(232,465,o),
(170,361,qs),
(91,220,o),
(26,182,qs),
(3,169,o),
(12,153,qs),
(21,137,o),
(211,140,qs),
(348,141,o),
(402,150,o),
(413,173,qs),
(430,210,o),
(389,229,o),
(315,218,qs),
(279,213,o),
(218,213,o),
(213,217,qs),
(201,225,o),
(265,334,o),
(381,500,qs),
(414,549,o),
(461,632,o),
(461,642,qs),
(461,665,o),
(474,678,qs),
(478,681,o),
(479,685,q),
(488,704,o),
(450,718,qs),
(400,737,o),
(357,719,qs),
(326,708,o)
);
}
);
width = 491;
}
);
note = Z;
unicode = 90;
},
{
glyphname = bracketleft;
layers = (
{
layerId = m01;
shapes = (
{
closed = 1;
nodes = (
(34,390,qs),
(22,215,o),
(13,170,qs),
(8,142,o),
(14,122,o),
(29,117,qs),
(31,116,o),
(79,99,qs),
(126,79,o),
(281,63,o),
(290,77,qs),
(296,87,o),
(276,110,qs),
(253,135,o),
(183,135,qs),
(156,135,o),
(128,137,o),
(102,144,o),
(93,153,o),
(87,176,o),
(89,200,o),
(92,223,qs),
(100,301,o),
(100,457,qs),
(100,621,o),
(120,660,qs),
(126,672,o),
(135,683,o),
(146,693,o),
(170,695,o),
(196,695,o),
(225,694,qs),
(279,691,o),
(322,703,o),
(301,734,o),
(259,760,qs),
(195,800,o),
(143,800,qs),
(91,800,l),
(68,682,ls),
(46,558,o)
);
}
);
width = 325;
}
);
note = bracketleft;
unicode = 91;
},
{
glyphname = backslash;
layers = (
{
layerId = m01;
shapes = (
{
closed = 1;
nodes = (
(9,711,o),
(18,661,qs),
(34,590,o),
(53,475,qs),
(76,346,o),
(156,138,o),
(183,138,qs),
(226,138,o),
(198,204,qs),
(179,247,o),
(137,501,qs),
(127,558,o),
(121,595,qs),
(92,764,o),
(71,782,qs),
(57,794,o),
(28,761,qs),
(12,744,o)
);
}
);
width = 219;
}
);
note = backslash;
unicode = 92;
},
{
glyphname = bracketright;
layers = (
{
layerId = m01;
shapes = (
{
closed = 1;
nodes = (
(82,759,o),
(132,748,o),
(150,752,qs),
(180,757,o),
(187,747,q),
(192,733,o),
(194,440,qs),
(197,144,l),
(140,147,ls),
(117,148,o),
(76,158,o),
(70,164,qs),
(56,177,o),
(10,175,o),
(10,160,qs),
(10,140,o),
(59,95,o),
(125,72,o),
(146,81,qs),
(162,87,o),
(192,73,qs),
(222,57,o),
(255,93,o),
(262,148,qs),
(275,265,o),
(284,387,o),
(287,518,qs),
(291,640,o),
(301,720,o),
(315,735,qs),
(325,745,o),
(334,772,o),
(331,781,qs),
(326,792,o),
(271,800,o),
(193,800,qs),
(62,800,o),
(55,787,qs),
(50,779,o)
);
}
);
width = 342;
}
);
note = bracketright;
unicode = 93;
},
{
glyphname = a;
layers = (
{
layerId = m01;
shapes = (
{
closed = 1;
nodes = (
(67,383,qs),
(23,336,o),
(8,300,o),
(12,258,qs),
(20,185,o),
(123,128,o),
(202,152,qs),
(209,154,o),
(233,134,o),
(242,118,qs),
(264,80,o),
(278,80,qs),
(301,80,o),
(323,183,qs),
(361,349,o),
(364,365,qs),
(376,416,o),
(375,451,o),
(362,466,qs),
(343,487,o),
(239,488,o),
(181,468,qs),
(128,448,o)
);
},
{
closed = 1;
nodes = (
(222,247,o),
(171,227,qs),
(133,213,o),
(100,210,o),
(89,218,qs),
(76,229,o),
(75,271,o),
(97,319,o),
(130,366,o),
(178,402,o),
(201,408,qs),
(226,414,o),
(247,420,o),
(271,421,o),
(276,418,o),
(280,403,o),
(278,387,o),
(275,369,qs),
(264,304,o)
);
}
);
width = 386;
}
);
note = a;
unicode = 97;
},
{
glyphname = b;
layers = (
{
layerId = m01;
shapes = (
{
closed = 1;
nodes = (
(17,305,o),
(11,210,qs),
(7,153,o),
(43,116,o),
(82,136,qs),
(115,153,o),
(142,144,qs),
(174,134,o),
(315,205,o),
(338,244,qs),
(358,278,o),
(367,368,o),
(351,378,qs),
(346,381,o),
(338,400,o),
(338,409,qs),
(338,432,o),
(282,482,o),
(243,495,qs),
(216,504,o),
(203,523,o),
(205,551,qs),
(211,601,o),
(228,661,qs),
(244,728,o),
(239,738,qs),
(231,750,o),
(170,745,o),
(160,732,qs),
(126,689,o)
);
},
{
closed = 1;
nodes = (
(221,244,o),
(198,225,qs),
(182,210,o),
(161,207,o),
(143,216,qs),
(116,230,o),
(122,252,qs),
(128,268,o),
(143,332,qs),
(160,395,o),
(187,419,o),
(221,401,qs),
(260,382,o),
(260,357,qs),
(260,328,o)
);
}
);
width = 374;
}
);
note = b;
unicode = 98;
},
{
glyphname = c;
layers = (
{
layerId = m01;
shapes = (
{
closed = 1;
nodes = (
(26,361,o),
(15,312,qs),
(7,278,o),
(17,238,o),
(44,192,qs),
(61,162,o),
(102,116,o),
(118,109,qs),
(154,95,o),
(320,118,o),
(320,138,qs),
(320,145,o),
(305,159,o),
(294,162,qs),
(269,167,o),
(134,243,o),
(119,261,qs),
(100,284,o),
(148,371,o),
(249,446,o),
(297,456,qs),
(307,458,o),
(316,460,qs),
(391,477,o),
(364,509,qs),
(348,529,o),
(258,521,o),
(199,496,qs),
(132,467,o)
);
}
);
width = 381;
}
);
note = c;
unicode = 99;
},
{
glyphname = d;
layers = (
{
layerId = m01;
shapes = (
{
closed = 1;
nodes = (
(422,641,o),
(379,514,o),
(369,514,qs),
(356,514,o),
(332,529,qs),
(315,540,o),
(253,520,o),
(162,475,qs),
(148,468,o),
(57,314,o),
(25,242,qs),
(6,201,o),
(16,99,o),
(40,71,qs),
(54,57,o),
(99,47,o),
(154,47,qs),
(245,47,o),
(282,65,qs),
(296,73,o),
(332,80,o),
(343,77,qs),
(370,70,o),
(422,202,o),
(441,329,qs),
(460,464,o),
(489,570,qs),
(517,671,l),
(486,704,ls),
(467,723,o),
(447,729,o),
(438,719,qs),
(422,704,o)
);
},
{
closed = 1;
nodes = (
(298,187,o),
(279,151,qs),
(269,132,o),
(245,124,o),
(213,129,qs),
(159,135,o),
(123,174,o),
(123,223,qs),
(123,259,o),
(141,301,o),
(171,334,qs),
(207,373,o),
(306,437,o),
(325,431,qs),
(329,430,o),
(334,390,o),
(332,364,qs),
(330,314,o)
);
}
);
width = 527;
}
);
note = d;
unicode = 100;
},
{
glyphname = e;
layers = (
{
layerId = m01;
shapes = (
{
closed = 1;
nodes = (
(21,414,o),
(12,369,qs),
(5,332,o),
(38,238,o),
(68,212,qs),
(89,192,o),
(238,146,o),
(248,156,qs),
(257,166,o),
(242,191,o),
(197,218,o),
(166,227,qs),
(126,241,o),
(103,260,o),
(103,301,o),
(117,314,o),
(142,317,qs),
(197,322,o),
(251,343,o),
(285,373,qs),
(313,398,o),
(330,433,o),
(330,468,qs),
(330,498,o),
(317,535,o),
(300,551,qs),
(269,579,o),
(264,579,qs),
(261,579,o),
(178,540,qs),
(110,506,o)
);
},
{
closed = 1;
nodes = (
(182,384,o),
(147,384,qs),
(105,384,o),
(103,420,o),
(142,457,qs),
(186,498,o),
(247,501,o),
(242,462,qs),
(239,431,o)
);
}
);
width = 340;
}
);
note = e;
unicode = 101;
},
{
glyphname = f;
layers = (
{
layerId = m01;
shapes = (
{
closed = 1;
nodes = (
(119,577,qs),
(119,538,o),
(79,480,o),
(48,475,qs),
(10,469,o),
(10,430,o),
(48,423,qs),
(87,417,l),
(87,284,ls),
(87,152,o),
(96,143,qs),
(107,134,o),
(139,148,qs),
(149,153,o),
(159,162,o),
(168,174,o),
(170,204,o),
(171,238,o),
(171,274,qs),
(171,344,o),
(181,394,o),
(197,410,qs),
(223,436,o),
(248,436,qs),
(261,436,o),
(288,453,o),
(298,472,o),
(292,479,qs),
(285,488,o),
(256,488,qs),
(227,488,o),
(210,508,qs),
(193,529,o),
(213,627,o),
(241,656,qs),
(266,679,o),
(282,681,o),
(301,664,qs),
(318,649,o),
(339,646,o),
(360,655,qs),
(363,656,o),
(365,657,qs),
(406,678,o),
(384,704,qs),
(359,735,o),
(287,735,qs),
(265,735,o),
(220,707,o),
(184,670,qs),
(119,607,o)
);
}
);
width = 401;
}
);
note = f;
unicode = 102;
},
{
glyphname = g;
layers = (
{
layerId = m01;
shapes = (
{
closed = 1;
nodes = (
(4,377,o),
(17,332,qs),
(33,280,o),
(114,228,o),
(165,236,qs),
(213,244,l),
(213,182,ls),
(213,147,o),
(199,101,o),
(180,77,qs),
(151,39,o),
(108,33,o),
(68,61,qs),
(30,89,o),
(17,77,qs),
(11,70,o),
(48,23,o),
(101,-18,o),
(115,-18,qs),
(152,-18,o),
(221,8,o),
(233,26,qs),
(253,57,o),
(291,266,o),
(294,362,qs),
(298,477,l),
(252,514,ls),
(204,555,o),
(112,554,o),
(77,512,qs),
(29,455,o)
);
},
{
closed = 1;
nodes = (
(225,367,o),
(185,296,o),
(154,290,qs),
(100,280,o),
(57,332,o),
(71,390,qs),
(78,421,o),
(110,473,o),
(146,500,o),
(185,500,o),
(199,483,qs),
(223,455,o)
);
}
);
width = 308;
}
);
note = g;
unicode = 103;
},
{
glyphname = h;
layers = (
{
layerId = m01;
shapes = (
{
closed = 1;
nodes = (
(77,528,o),
(56,417,qs),
(39,337,o),
(28,325,qs),
(15,308,o),
(7,99,o),
(19,91,q),
(28,87,o),
(43,94,o),
(61,129,o),
(81,188,o),
(95,235,qs),
(114,307,o),
(141,358,o),
(166,374,qs),
(181,384,o),
(224,396,o),
(238,395,qs),
(259,392,o),
(271,372,o),
(274,334,qs),
(276,311,o),
(271,254,o),
(265,239,qs),
(252,200,o),
(265,174,qs),
(266,172,o),
(266,171,q),
(290,131,o),
(323,170,qs),
(365,219,o),
(375,329,qs),
(381,383,o),
(372,423,o),
(348,456,qs),
(316,497,o),
(243,539,o),
(215,532,qs),
(201,528,o),
(196,533,qs),
(189,541,o),
(195,635,qs),
(199,709,o),
(194,735,qs),
(186,773,o),
(149,722,qs),
(128,694,o)
);
}
);
width = 389;
}
);
note = h;
unicode = 104;
},
{
glyphname = i;
layers = (
{
layerId = m01;
shapes = (
{
closed = 1;
nodes = (
(160,668,qs),
(131,664,o),
(101,594,o),
(120,573,qs),
(134,555,o),
(220,553,o),
(234,570,qs),
(239,576,o),
(250,617,o),
(252,638,qs),
(255,677,o),
(225,706,o),
(204,684,q),
(189,672,o)
);
},
{
closed = 1;
nodes = (
(30,248,qs),
(6,131,o),
(10,122,q),
(17,111,o),
(55,113,o),
(55,123,qs),
(55,129,o),
(74,146,o),
(88,153,qs),
(116,167,o),
(151,247,o),
(171,344,qs),
(181,390,o),
(182,432,o),
(173,440,qs),
(158,455,o),
(143,439,qs),
(134,430,o),
(118,432,o),
(104,444,qs),
(90,458,o),
(79,459,o),
(75,448,q),
(63,400,o)
);
}
);
width = 262;
}
);
note = i;
unicode = 105;
},
{
glyphname = j;
layers = (
{
layerId = m01;
shapes = (
{
closed = 1;
nodes = (
(252,592,o),
(289,592,qs),
(313,592,o),
(371,682,o),
(366,712,qs),
(362,740,o),
(321,749,o),
(302,726,qs),
(260,674,o)
);
},
{
closed = 1;
nodes = (
(257,501,qs),
(236,501,o),
(202,443,o),
(226,414,o),
(175,140,o),
(153,96,qs),
(132,55,o),
(69,20,o),
(44,34,qs),
(15,48,o),
(11,44,qs),
(7,40,o),
(14,-23,qs),
(22,-86,l),
(74,-79,ls),
(146,-69,o),
(270,103,o),
(284,216,qs),
(293,285,o),
(306,310,qs),
(325,346,o),
(333,494,qs),
(335,526,o),
(309,543,o),
(291,521,qs),
(274,501,o)
);
}
);
width = 376;
}
);
note = j;
unicode = 106;
},
{
glyphname = k;
layers = (
{
layerId = m01;
shapes = (
{
closed = 1;
nodes = (
(6,197,o),
(13,142,qs),
(20,73,o),
(33,64,qs),
(49,54,o),
(95,123,o),
(102,165,qs),
(112,217,o),
(122,223,qs),
(126,226,o),
(162,208,o),
(181,192,qs),
(210,170,o),
(258,154,o),
(300,153,qs),
(360,151,o),
(366,164,qs),
(373,183,o),
(283,221,qs),
(252,234,o),
(225,245,o),
(193,267,o),
(184,274,o),
(184,301,o),
(193,313,o),
(225,353,o),
(252,379,o),
(283,410,qs),
(357,485,o),
(392,533,o),
(380,545,q),
(367,563,o),
(340,564,o),
(298,531,o),
(257,488,qs),
(238,467,o),
(201,431,o),
(179,412,o),
(179,413,q),
(173,421,o),
(218,645,qs),
(224,678,o),
(214,700,o),
(184,714,qs),
(145,735,o),
(135,735,qs),
(127,735,o),
(89,582,qs),
(35,364,o)
);
}
);
width = 395;
}
);
note = k;
unicode = 107;
},
{
glyphname = l;
layers = (
{
layerId = m01;
shapes = (
{
closed = 1;
nodes = (
(93,532,qs),
(72,440,o),
(47,352,qs),
(15,245,o),
(7,164,o),
(26,156,qs),
(47,149,o),
(67,165,qs),
(90,184,o),
(138,292,o),
(138,325,qs),
(139,374,o),
(204,592,qs),
(219,642,o),
(219,670,q),
(221,690,o),
(208,703,o),
(186,703,qs),
(164,704,o),
(142,688,o),
(131,664,qs),
(114,620,o)
);
}
);
width = 230;
}
);
note = l;
unicode = 108;
},
{
glyphname = m;
layers = (
{
layerId = m01;
shapes = (
{
closed = 1;
nodes = (
(289,436,qs),
(285,436,o),
(278,462,qs),
(271,489,o),
(207,487,o),
(173,461,qs),
(154,446,o),
(137,442,o),
(134,452,qs),
(121,493,o),
(108,514,o),
(95,514,qs),
(78,514,o),
(53,463,o),
(29,344,o),
(13,232,qs),
(8,194,o),
(11,171,qs),
(16,133,o),
(36,146,qs),
(68,167,o),
(94,265,qs),
(108,321,o),
(159,410,o),
(177,410,qs),
(183,410,o),
(215,387,qs),
(246,364,l),
(224,277,ls),
(186,124,o),
(233,114,qs),
(246,112,o),
(259,131,o),
(264,158,qs),
(274,211,o),
(317,306,qs),
(363,404,l),
(387,373,ls),
(410,346,o),
(411,301,o),
(391,232,qs),
(377,183,o),
(380,160,qs),
(383,125,o),
(417,162,qs),
(437,184,o),
(477,330,o),
(477,378,qs),
(477,410,o),
(421,518,o),
(402,525,qs),
(395,527,o),
(359,503,o),
(339,483,qs),
(293,436,o)
);
}
);
width = 487;
}
);
note = m;
unicode = 109;
},
{
glyphname = n;
layers = (
{
layerId = m01;
shapes = (
{
closed = 1;
nodes = (
(53,339,qs),
(33,264,o),
(16,199,o),
(8,147,o),
(14,133,o),
(23,125,qs),
(51,103,o),
(82,143,o),
(95,214,qs),
(101,253,o),
(127,326,o),
(139,340,qs),
(160,368,o),
(250,412,o),
(266,403,qs),
(280,396,o),
(275,264,qs),
(272,179,o),
(278,130,o),
(292,127,qs),
(303,125,o),
(316,133,o),
(327,168,o),
(333,226,o),
(338,281,qs),
(344,365,o),
(337,410,o),
(312,443,qs),
(256,516,o),
(191,469,qs),
(173,456,o),
(159,456,o),
(148,469,qs),
(133,486,o),
(112,488,o),
(99,473,qs),
(87,459,o)
);
}
);
width = 352;
}
);
note = n;
unicode = 110;
},
{
glyphname = o;
layers = (
{
layerId = m01;
shapes = (
{
closed = 1;
nodes = (
(10,396,o),
(10,327,qs),
(10,294,o),
(28,254,o),
(54,225,qs),
(83,192,o),
(120,177,o),
(165,177,qs),
(205,177,o),
(246,191,o),
(274,216,qs),
(292,232,o),
(326,283,o),
(332,303,qs),
(343,346,o),
(334,431,o),
(291,500,o),
(236,546,o),
(166,556,o),
(133,538,qs),
(74,506,o)
);
},
{
closed = 1;
nodes = (
(255,379,o),
(249,351,qs),
(243,320,o),
(207,268,o),
(163,241,o),
(116,243,o),
(101,261,qs),
(85,280,o),
(98,385,o),
(119,417,qs),
(138,447,o),
(212,451,o),
(236,425,qs),
(249,410,o)
);
}
);
width = 350;
}
);
note = o;
unicode = 111;
},
{
glyphname = p;
layers = (
{
layerId = m01;
shapes = (
{
closed = 1;
nodes = (
(111,485,o),
(71,369,o),
(43,253,qs),
(19,150,o),
(7,63,o),
(15,43,qs),
(20,28,o),
(36,8,o),
(41,8,qs),
(57,8,o),
(107,111,o),
(107,145,qs),
(107,190,o),
(120,216,qs),
(128,231,o),
(147,235,o),
(172,227,qs),
(211,214,o),
(316,275,o),
(392,384,o),
(392,434,qs),
(392,465,o),
(304,553,o),
(274,552,qs),
(255,550,o),
(192,542,qs),
(157,536,o)
);
},
{
closed = 1;
nodes = (
(315,436,o),
(315,413,qs),
(315,373,o),
(243,303,o),
(172,297,o),
(154,327,q),
(147,346,o),
(176,469,o),
(190,478,qs),
(205,489,o),
(231,486,o),
(269,470,qs),
(297,458,o)
);
}
);
width = 402;
}
);
note = p;
unicode = 112;
},
{
glyphname = q;
layers = (
{
layerId = m01;
shapes = (
{
closed = 1;
nodes = (
(14,351,qs),
(8,304,o),
(18,276,o),
(50,252,qs),
(96,218,o),
(131,208,qs),
(143,205,o),
(153,200,o),
(162,193,o),
(162,172,o),
(161,149,o),
(158,123,qs),
(152,72,o),
(159,37,o),
(183,14,qs),
(208,-11,o),
(277,-22,o),
(289,-3,qs),
(293,3,o),
(279,26,o),
(264,36,qs),
(228,63,o),
(227,175,o),
(262,221,qs),
(275,238,o),
(294,277,o),
(294,286,qs),
(294,309,o),
(315,371,qs),
(334,431,o),
(324,481,o),
(288,503,qs),
(253,523,o),
(197,524,o),
(144,505,qs),
(27,465,o)
);
},
{
closed = 1;
nodes = (
(216,291,o),
(199,271,qs),
(187,254,o),
(129,257,o),
(102,275,qs),
(80,291,o),
(69,358,o),
(85,382,qs),
(96,400,o),
(146,431,o),
(197,448,o),
(242,448,o),
(249,436,qs),
(256,426,o)
);
}
);
width = 340;
}
);
note = q;
unicode = 113;
},
{
glyphname = r;
layers = (
{
layerId = m01;
shapes = (
{
closed = 1;
nodes = (
(26,348,o),
(15,258,qs),
(7,188,o),
(19,147,o),
(48,153,qs),
(70,157,o),
(89,226,qs),
(100,266,o),
(133,316,o),
(167,345,qs),
(220,392,o),
(284,398,o),
(313,358,qs),
(338,323,o),
(358,321,qs),
(378,319,o),
(378,351,qs),
(378,381,o),
(385,401,qs),
(388,410,o),
(376,438,o),
(365,449,qs),
(346,468,o),
(309,477,o),
(262,473,qs),
(190,466,o),
(171,461,qs),
(161,458,o),
(152,474,o),
(152,494,qs),
(150,564,o),
(96,518,qs),
(72,497,o)
);
}
);
width = 396;
}
);
note = r;
unicode = 114;
},
{
glyphname = s;
layers = (
{
layerId = m01;
shapes = (
{
closed = 1;
nodes = (
(65,482,o),
(58,436,qs),
(53,394,o),
(80,304,o),
(104,284,qs),
(120,270,o),
(157,261,qs),
(175,256,o),
(183,248,qs),
(203,229,o),
(171,205,qs),
(129,173,o),
(67,181,qs),
(41,183,o),
(12,184,o),
(10,182,q),
(10,176,o),
(23,145,qs),
(30,127,o),
(52,112,o),
(71,112,qs),
(104,112,o),
(250,165,o),
(274,186,qs),
(297,207,o),
(294,280,o),
(268,299,qs),
(243,316,o),
(179,409,o),
(179,427,qs),
(179,451,o),
(232,480,o),
(278,482,qs),
(322,483,o),
(380,519,o),
(368,539,qs),
(360,553,o),
(261,551,o),
(192,535,qs),
(112,518,o)
);
}
);
width = 381;
}
);
note = s;
unicode = 115;
},
{
glyphname = t;
layers = (
{
layerId = m01;
shapes = (
{
closed = 1;
nodes = (
(127,636,o),
(123,604,qs),
(119,569,o),
(105,545,o),
(89,543,qs),
(77,541,o),
(43,520,o),
(30,506,qs),
(2,476,o),
(23,431,o),
(67,426,qs),
(93,423,o),
(109,405,o),
(115,374,qs),
(123,322,o),
(123,258,qs),
(123,217,o),
(134,183,o),
(151,171,qs),
(182,150,o),
(232,155,o),
(259,183,qs),
(286,209,o),
(293,273,o),
(272,301,qs),
(258,319,o),
(247,317,o),
(228,294,qs),
(202,261,l),
(189,297,ls),
(175,333,o),
(200,397,o),
(229,397,qs),
(263,398,o),
(316,451,o),
(323,491,qs),
(328,523,o),
(321,540,o),
(302,543,qs),
(271,547,o),
(240,610,qs),
(213,662,o),
(186,683,o),
(155,671,qs),
(141,666,o)
);
}
);
width = 337;
}
);
note = t;
unicode = 116;
},
{
glyphname = u;
layers = (
{
layerId = m01;
shapes = (
{
closed = 1;
nodes = (
(5,291,o),
(12,247,qs),
(22,182,o),
(76,125,o),
(126,125,qs),
(154,125,o),
(188,135,o),
(226,173,o),
(261,234,o),
(290,291,qs),
(338,388,o),
(338,423,qs),
(338,456,o),
(299,456,qs),
(274,456,o),
(252,425,o),
(228,352,qs),
(205,286,o),
(176,239,o),
(150,223,q),
(120,208,o),
(100,206,o),
(87,218,qs),
(75,231,o),
(74,277,o),
(84,348,qs),
(106,501,o),
(72,501,qs),
(60,501,o),
(47,486,q),
(31,463,o)
);
}
);
width = 348;
}
);
note = u;
unicode = 117;
},
{
glyphname = v;
layers = (
{
layerId = m01;
shapes = (
{
closed = 1;
nodes = (
(203,413,qs),
(183,375,o),
(146,321,o),
(141,323,qs),
(135,325,o),
(119,350,o),
(115,366,qs),
(94,434,o),
(47,515,o),
(30,512,qs),
(17,509,o),
(9,482,o),
(11,445,qs),
(14,390,o),
(53,198,o),
(63,188,q),
(78,179,o),
(116,173,qs),
(143,167,o),
(163,175,o),
(170,195,qs),
(182,224,o),
(195,235,q),
(207,241,o),
(260,344,qs),
(312,448,o),
(328,471,q),
(338,489,o),
(338,506,o),
(328,519,qs),
(312,538,o),
(278,541,o),
(265,525,qs),
(256,514,o)
);
}
);
width = 348;
}
);
note = v;
unicode = 118;
},
{
glyphname = w;
layers = (
{
layerId = m01;
shapes = (
{
closed = 1;
nodes = (
(418,449,qs),
(402,431,o),
(375,358,qs),
(359,313,o),
(329,281,o),
(297,305,o),
(278,345,qs),
(258,386,o),
(226,413,o),
(194,390,o),
(177,352,qs),
(165,327,o),
(141,295,o),
(135,297,qs),
(122,302,o),
(105,370,qs),
(94,424,o),
(61,472,o),
(33,478,qs),
(17,481,o),
(13,476,qs),
(6,468,o),
(22,387,qs),
(43,290,o),
(119,138,o),
(147,138,qs),
(153,138,o),
(178,176,o),
(190,203,qs),
(217,268,o),
(229,268,qs),
(233,268,o),
(261,237,o),
(275,216,qs),
(306,172,o),
(340,161,o),
(364,187,qs),
(382,207,o),
(476,441,o),
(479,474,qs),
(483,503,o),
(467,510,qs),
(451,517,o),
(442,492,qs),
(436,473,o)
);
}
);
width = 490;
}
);
note = w;
unicode = 119;
},
{
glyphname = x;
layers = (
{
layerId = m01;
shapes = (
{
closed = 1;
nodes = (
(145,420,o),
(117,445,qs),
(103,457,o),
(88,460,o),
(78,452,q),
(70,443,o),
(76,409,o),
(94,371,qs),
(125,305,l),
(88,231,ls),
(47,153,o),
(26,126,qs),
(2,95,o),
(16,81,qs),
(31,65,o),
(108,148,qs),
(184,229,o),
(193,229,qs),
(199,229,o),
(254,183,qs),
(306,138,o),
(320,138,qs),
(326,138,o),
(348,163,o),
(358,181,qs),
(382,222,l),
(320,278,o),
(259,334,q),
(300,377,ls),
(331,408,o),
(336,430,o),
(320,460,qs),
(312,477,o),
(294,501,o),
(290,501,qs),
(280,501,o),
(243,462,qs),
(212,429,o)
);
}
);
width = 392;
}
);
note = x;
unicode = 120;
},
{
glyphname = y;
layers = (
{
layerId = m01;
shapes = (
{
closed = 1;
nodes = (
(25,480,o),
(38,425,qs),
(60,346,o),
(86,286,qs),
(113,232,o),
(105,175,o),
(60,100,qs),
(26,42,o),
(16,17,qs),
(2,-18,o),
(25,-18,qs),
(35,-18,o),
(51,-11,o),
(77,14,o),
(105,50,o),
(153,123,o),
(208,210,o),
(251,281,qs),
(293,347,o),
(385,528,o),
(385,543,qs),
(385,547,o),
(375,553,o),
(368,553,qs),
(350,553,o),
(281,476,o),
(258,429,qs),
(231,375,o),
(211,360,qs),
(198,349,o),
(185,360,o),
(171,391,qs),
(151,442,o),
(151,445,qs),
(151,449,o),
(121,483,o),
(101,503,qs),
(68,536,o),
(44,546,o),
(33,532,qs),
(22,519,o)
);
}
);
width = 395;
}
);
note = y;
unicode = 121;
},
{
glyphname = z;
layers = (
{
layerId = m01;
shapes = (
{
closed = 1;
nodes = (
(20,456,qs),
(8,449,o),
(10,441,q),
(17,423,o),
(73,423,qs),
(124,423,o),
(124,408,qs),
(124,396,o),
(59,279,o),
(30,239,qs),
(24,230,o),
(20,210,o),
(25,206,qs),
(35,197,o),
(167,190,qs),
(240,186,o),
(305,190,o),
(315,200,qs),
(328,213,o),
(334,233,o),
(320,248,o),
(284,258,o),
(254,261,qs),
(176,270,o),
(176,283,qs),
(176,288,o),
(204,320,o),
(223,336,qs),
(264,374,o),
(321,462,o),
(312,475,qs),
(305,486,o),
(162,486,o),
(95,475,qs),
(30,463,o)
);
}
);
width = 342;
}
);
note = z;
unicode = 122;
},
{
glyphname = braceleft;
layers = (
{
layerId = m01;
shapes = (
{
closed = 1;
nodes = (
(215,644,qs),
(186,587,o),
(131,553,o),
(65,553,qs),
(32,553,o),
(21,519,q),
(12,498,o),
(8,480,o),
(21,455,o),
(46,437,o),
(78,416,qs),
(148,369,l),
(128,309,ls),
(102,226,o),
(104,171,o),
(136,106,qs),
(156,66,o),
(197,5,o),
(230,-21,o),
(237,-13,qs),
(254,4,o),
(243,105,o),
(221,140,qs),
(149,253,o),
(237,351,qs),
(286,404,o),
(310,413,qs),
(334,424,o),
(330,445,qs),
(327,460,o),
(302,467,o),
(263,465,qs),
(202,461,o),
(202,474,qs),
(202,480,o),
(225,488,o),
(240,488,qs),
(276,488,o),
(308,525,o),
(293,549,qs),
(271,585,o),
(345,699,o),
(413,732,qs),
(462,758,o),
(449,793,o),
(389,797,qs),
(344,800,o),
(312,788,o),
(288,760,qs),
(254,719,o)
);
}
);
width = 466;
}
);
note = braceleft;
unicode = 123;
},
{
glyphname = bar;
layers = (
{
layerId = m01;
shapes = (
{
closed = 1;
nodes = (
(14,444,qs),
(9,271,o),
(12,124,o),
(20,119,qs),
(26,116,o),
(35,85,o),
(35,66,qs),
(35,46,o),
(38,33,qs),
(47,-3,o),
(74,26,q),
(88,46,o),
(87,374,qs),
(86,538,o),
(85,566,qs),
(84,778,o),
(75,795,qs),
(73,800,o),
(59,800,qs),
(51,800,o),
(32,788,o),
(29,781,qs),
(21,755,o)
);
}
);
width = 97;
}
);
note = bar;
unicode = 124;
},
{
glyphname = braceright;
layers = (
{
layerId = m01;
shapes = (
{
closed = 1;
nodes = (
(148,686,qs),
(153,620,o),
(166,587,qs),
(178,555,o),
(165,527,o),
(139,527,qs),
(133,527,o),
(129,527,q),
(96,522,o),
(148,474,qs),
(181,443,o),
(222,443,qs),
(263,443,o),
(263,423,qs),
(263,413,o),
(234,404,o),
(196,404,qs),
(137,404,o),
(111,387,o),
(126,360,qs),
(135,345,o),
(122,300,o),
(94,249,qs),
(65,193,o),
(11,63,o),
(10,44,qs),
(10,35,o),
(42,32,o),
(81,46,o),
(91,57,qs),
(110,78,o),
(205,297,o),
(198,304,qs),
(191,312,o),
(224,345,o),
(239,345,qs),
(259,345,o),
(387,404,o),
(387,413,qs),
(387,418,o),
(368,431,o),
(355,436,qs),
(342,441,o),
(315,463,o),
(310,474,qs),
(304,485,o),
(279,502,o),
(267,504,qs),
(252,506,o),
(241,523,o),
(234,567,o),
(229,627,qs),
(224,729,o),
(185,800,o),
(136,800,qs),
(108,800,o),
(103,793,o),
(120,775,qs),
(143,748,o)
);
}
);
width = 397;
}
);
note = braceright;
unicode = 125;
},
{
glyphname = asciitilde;
layers = (
{
layerId = m01;
shapes = (
{
closed = 1;
nodes = (
(70,422,qs),
(28,398,o),
(5,374,o),
(14,364,qs),
(58,314,o),
(119,364,qs),
(165,403,o),
(232,406,o),
(301,374,qs),
(384,336,o),
(465,327,qs),
(493,325,o),
(516,324,o),
(540,325,o),
(552,336,o),
(562,348,o),
(571,362,qs),
(603,411,o),
(614,427,qs),
(625,442,o),
(619,460,o),
(599,475,qs),
(541,519,o),
(487,453,qs),
(458,419,l),
(388,468,ls),
(318,514,o),
(312,514,q),
(289,503,o),
(211,476,o),
(184,471,qs),
(139,461,o)
);
}
);
width = 633;
}
);
note = asciitilde;
unicode = 126;
},
{
glyphname = cent;
layers = (
{
layerId = m01;
shapes = (
{
closed = 1;
nodes = (
(230,709,qs),
(230,692,o),
(141,573,o),
(112,551,qs),
(105,546,o),
(93,536,qs),
(26,484,o),
(6,456,o),
(16,425,qs),
(18,419,o),
(19,416,qs),
(25,394,o),
(61,338,o),
(80,319,qs),
(112,289,o),
(126,251,o),
(126,199,qs),
(126,178,o),
(127,150,o),
(131,132,o),
(138,126,o),
(143,127,q),
(155,132,o),
(186,187,o),
(196,219,qs),
(201,235,o),
(231,242,o),
(325,238,o),
(355,245,o),
(357,258,qs),
(361,281,o),
(336,281,qs),
(311,281,o),
(295,299,qs),
(281,317,o),
(252,322,qs),
(232,325,o),
(225,350,o),
(228,404,qs),
(233,490,o),
(260,540,o),
(300,540,qs),
(330,540,o),
(367,565,o),
(372,596,o),
(343,626,o),
(313,631,qs),
(284,637,o),
(272,681,o),
(283,747,qs),
(289,779,o),
(254,786,o),
(243,755,qs),
(230,718,o)
);
},
{
closed = 1;
nodes = (
(126,342,o),
(105,360,qs),
(87,374,o),
(99,441,o),
(123,460,qs),
(137,471,o),
(147,468,qs),
(171,463,o),
(160,405,qs),
(152,364,o)
);
}
);
width = 380;
}
);
note = cent;
unicode = 162;
},
{
glyphname = sterling;
layers = (
{
layerId = m01;
shapes = (
{
closed = 1;
nodes = (
(158,617,qs),
(154,589,o),
(125,550,o),
(92,526,qs),
(35,483,o),
(35,479,qs),
(35,473,o),
(74,461,qs),
(107,449,o),
(114,409,o),
(94,352,qs),
(74,298,o),
(74,277,qs),
(74,268,o),
(55,245,o),
(42,239,qs),
(13,226,o),
(7,193,o),
(33,183,qs),
(61,171,o),
(183,167,o),
(302,177,o),
(392,201,o),
(392,216,qs),
(392,227,o),
(345,235,o),
(271,236,qs),
(221,237,o),
(143,246,o),
(138,251,qs),
(129,260,o),
(164,411,o),
(181,432,qs),
(192,447,o),
(257,456,qs),
(310,464,o),
(322,475,o),
(308,503,q),
(293,527,o),
(256,527,qs),
(228,527,o),
(217,543,o),
(217,583,qs),
(217,638,o),
(236,713,q),
(238,718,o),
(240,727,qs),
(255,782,o),
(254,800,o),
(236,800,qs),
(232,800,o),
(230,800,qs),
(215,800,o),
(196,771,o),
(186,732,qs),
(164,654,o)
);
}
);
width = 402;
}
);
note = sterling;
unicode = 163;
},
{
glyphname = guillemotleft;
layers = (
{
layerId = m01;
shapes = (
{
closed = 1;
nodes = (
(55,463,o),
(42,455,qs),
(28,445,o),
(10,417,o),
(10,404,qs),
(10,369,o),
(72,217,o),
(122,165,o),
(147,169,qs),
(170,172,o),
(161,197,qs),
(157,206,o),
(161,229,o),
(167,236,qs),
(175,246,o),
(164,277,o),
(141,305,qs),
(109,346,o),
(97,407,o),
(119,419,qs),
(136,428,o),
(205,506,qs),
(244,551,o),
(264,589,o),
(255,600,qs),
(210,655,o),
(128,547,qs),
(106,518,o)
);
},
{
closed = 1;
nodes = (
(259,436,q),
(240,436,o),
(237,420,qs),
(230,386,o),
(309,212,qs),
(326,173,o),
(344,155,o),
(355,165,qs),
(375,181,o),
(369,227,o),
(341,288,qs),
(309,358,o),
(309,377,qs),
(309,384,o),
(362,443,o),
(401,479,qs),
(442,516,o),
(489,571,o),
(485,578,qs),
(472,597,o),
(425,573,o),
(361,514,qs),
(276,439,o)
);
}
);
width = 496;
}
);
note = guillemotleft;
unicode = 171;
},
{
glyphname = guillemotright;
layers = (
{
layerId = m01;
shapes = (
{
closed = 1;
nodes = (
(65,513,qs),
(97,463,o),
(119,406,qs),
(129,381,o),
(127,357,o),
(108,328,o),
(73,288,qs),
(70,285,o),
(69,283,q),
(4,206,o),
(10,197,q),
(21,187,o),
(67,194,o),
(79,209,qs),
(86,218,o),
(110,225,o),
(119,222,qs),
(133,217,o),
(159,246,o),
(182,292,qs),
(222,369,o),
(234,377,qs),
(239,380,o),
(203,445,o),
(173,488,qs),
(126,554,o),
(86,592,o),
(64,592,qs),
(48,592,o),
(27,586,o),
(27,582,qs),
(27,569,o)
);
},
{
closed = 1;
nodes = (
(303,410,o),
(316,410,qs),
(319,410,o),
(321,409,qs),
(342,398,o),
(283,318,qs),
(181,186,o),
(208,160,q),
(210,157,o),
(214,157,qs),
(246,158,o),
(410,379,qs),
(417,389,o),
(381,438,o),
(330,488,qs),
(261,556,o),
(214,585,o),
(203,566,qs),
(197,557,o)
);
}
);
width = 422;
}
);
note = guillemotright;
unicode = 187;
},
{
glyphname = questiondown;
lastChange = "2022-08-09 20:05:03 +0000";
layers = (
{
layerId = m01;
shapes = (
{
closed = 1;
nodes = (
(172,417,qs),
(169,338,o),
(155,294,o),
(123,260,qs),
(73,208,o),
(10,71,o),
(10,14,qs),
(10,-13,o),
(20,-58,o),
(27,-64,qs),
(43,-76,o),
(218,-107,o),
(232,-99,qs),
(244,-91,o),
(244,-83,qs),
(244,-65,o),
(174,-34,qs),
(116,-8,o),
(72,46,o),
(83,80,qs),
(93,113,o),
(176,193,o),
(207,200,qs),
(241,253,o),
(254,330,qs),
(267,408,o),
(267,497,qs),
(267,590,o),
(237,583,qs),
(217,583,o),
(191,562,qs),
(180,529,o)
);
},
{
closed = 1;
nodes = (
(170,670,o),
(190,656,qs),
(223,635,o),
(276,655,o),
(288,696,qs),
(296,723,o),
(272,746,o),
(232,750,qs),
(203,752,o),
(188,746,o),
(179,731,qs),
(164,704,o)
);
}
);
width = 316;
}
);
note = questiondown;
unicode = 191;
},
{
glyphname = quoteright;
layers = (
{
layerId = m01;
shapes = (
{
closed = 1;
nodes = (
(44,622,qs),
(31,605,o),
(11,560,o),
(10,545,qs),
(9,530,o),
(12,520,qs),
(23,489,o),
(66,516,qs),
(119,550,o),
(157,630,qs),
(179,677,o),
(181,703,o),
(164,722,qs),
(139,748,o),
(116,743,o),
(97,706,qs),
(80,672,o)
);
}
);
width = 190;
}
);
note = quoteright;
unicode = 8217;
},
{
glyphname = quotedblleft;
lastChange = "2022-08-09 19:39:02 +0000";
layers = (
{
layerId = m01;
shapes = (
{
closed = 1;
nodes = (
(29,626,o),
(34,597,qs),
(44,549,o),
(23,506,qs),
(4,470,o),
(12,454,qs),
(22,434,o),
(55,465,qs),
(101,506,o),
(144,673,o),
(116,701,qs),
(100,718,o),
(77,711,o),
(54,681,qs),
(37,661,o)
);
},
{
closed = 1;
nodes = (
(294,646,o),
(297,626,qs),
(303,577,o),
(289,568,qs),
(283,565,o),
(275,532,o),
(275,514,qs),
(275,503,o),
(276,495,qs),
(281,456,o),
(307,474,qs),
(341,498,o),
(367,584,qs),
(377,618,o),
(375,650,o),
(360,671,qs),
(343,698,o),
(320,705,o),
(304,689,qs),
(299,683,o)
);
}
);
width = 386;
}
);
note = quotedblleft;
unicode = 8220;
},
{
glyphname = quotedblright;
layers = (
{
layerId = m01;
shapes = (
{
closed = 1;
nodes = (
(5,591,o),
(11,560,qs),
(17,526,o),
(63,470,o),
(78,479,qs),
(82,482,o),
(91,531,o),
(92,562,qs),
(94,637,o),
(109,681,qs),
(123,722,o),
(115,742,qs),
(108,759,o),
(72,761,o),
(58,745,qs),
(38,719,o)
);
},
{
closed = 1;
nodes = (
(234,525,o),
(248,512,qs),
(260,502,o),
(285,511,o),
(301,544,o),
(297,561,qs),
(294,573,o),
(301,622,o),
(309,644,qs),
(328,698,o),
(320,710,qs),
(313,724,o),
(277,719,o),
(262,701,qs),
(246,682,o)
);
}
);
width = 332;
}
);
note = quotedblright;
unicode = 8221;
},
{
glyphname = bullet;
lastChange = "2022-08-09 19:42:03 +0000";
layers = (
{
layerId = m01;
shapes = (
{
closed = 1;
nodes = (
(15,306,o),
(47,284,qs),
(101,245,o),
(186,282,o),
(205,354,qs),
(219,401,o),
(180,442,o),
(116,449,qs),
(69,453,o),
(45,443,o),
(30,415,qs),
(7,369,o)
);
}
);
width = 221;
}
);
note = bullet;
unicode = 8226;
},
{
glyphname = Euro;
layers = (
{
layerId = m01;
shapes = (
{
closed = 1;
nodes = (
(62,590,o),
(45,584,qs),
(11,572,o),
(9,547,o),
(41,540,qs),
(71,532,o),
(78,489,o),
(52,475,qs),
(33,466,o),
(31,452,o),
(45,432,qs),
(65,403,o),
(65,371,qs),
(65,340,o),
(126,208,o),
(150,187,qs),
(174,167,o),
(302,136,o),
(314,148,qs),
(325,160,o),
(315,186,o),
(271,212,o),
(237,222,qs),
(192,236,o),
(160,259,o),
(148,290,qs),
(128,337,o),
(132,370,qs),
(133,381,o),
(138,392,o),
(145,401,o),
(170,404,o),
(197,406,o),
(227,408,qs),
(284,410,o),
(309,416,qs),
(348,426,o),
(324,456,qs),
(309,475,o),
(232,475,qs),
(157,475,o),
(150,487,qs),
(145,496,o),
(149,503,qs),
(165,527,o),
(250,522,qs),
(324,518,o),
(339,535,qs),
(347,545,o),
(347,552,qs),
(350,579,o),
(279,579,qs),
(222,579,o),
(215,591,qs),
(207,604,o),
(300,713,o),
(348,747,qs),
(402,787,o),
(402,800,o),
(346,800,qs),
(307,800,o),
(260,770,o),
(187,700,qs),
(145,658,o)
);
}
);
width = 412;
}
);
note = Euro;
unicode = 8364;
},
{
glyphname = exclamdown;
lastChange = "2022-08-09 20:05:37 +0000";
layers = (
{
layerId = m01;
shapes = (
{
closed = 1;
nodes = (
(233,-108,qs),
(235,-118,o),
(293,-121,o),
(309,-113,q),
(326,-106,o),
(319,-68,qs),
(313,-23,o),
(308,258,o),
(313,273,qs),
(319,293,o),
(286,382,o),
(270,386,qs),
(262,389,o),
(251,378,o),
(242,341,o),
(236,280,o),
(232,232,qs),
(230,154,o),
(229,-89,o)
);
},
{
closed = 1;
nodes = (
(267,540,qs),
(275,510,o),
(318,491,o),
(361,518,o),
(370,548,qs),
(378,576,o),
(342,677,o),
(322,683,qs),
(300,690,o),
(267,649,o),
(257,576,o)
);
}
);
width = 600;
}
);
unicode = 161;
},
{
glyphname = periodcentered;
lastChange = "2022-08-09 20:04:37 +0000";
layers = (
{
layerId = m01;
shapes = (
{
closed = 1;
nodes = (
(233,293,o),
(259,275,qs),
(303,243,o),
(372,274,o),
(388,332,qs),
(399,370,o),
(367,403,o),
(315,409,qs),
(277,412,o),
(258,404,o),
(246,381,qs),
(227,344,o)
);
}
);
width = 600;
}
);
unicode = 183;
},
{
glyphname = endash;
lastChange = "2022-08-09 20:02:29 +0000";
layers = (
{
layerId = m01;
shapes = (
{
closed = 1;
nodes = (
(66,276,o),
(91,260,qs),
(119,242,o),
(506,255,o),
(531,274,qs),
(557,293,o),
(555,304,qs),
(553,331,o),
(389,341,qs),
(267,348,o),
(190,356,q),
(172,359,o),
(124,351,o),
(108,342,qs),
(75,324,o)
);
}
);
width = 600;
}
);
unicode = 8211;
},
{
glyphname = emdash;
lastChange = "2022-08-09 20:02:08 +0000";
layers = (
{
layerId = m01;
shapes = (
{
closed = 1;
nodes = (
(-110,281,o),
(-67,265,qs),
(-19,247,o),
(643,260,o),
(686,279,qs),
(729,298,o),
(727,309,qs),
(723,336,o),
(442,346,qs),
(234,353,o),
(102,361,q),
(72,364,o),
(-10,356,o),
(-37,347,qs),
(-94,329,o)
);
}
);
width = 600;
}
);
unicode = 8212;
},
{
glyphname = underscore;
lastChange = "2022-08-09 20:02:54 +0000";
layers = (
{
layerId = m01;
shapes = (
{
closed = 1;
nodes = (
(517,-34,qs),
(501,-27,o),
(453,-21,o),
(435,-23,q),
(358,-29,o),
(236,-34,qs),
(72,-42,o),
(70,-62,qs),
(68,-70,o),
(94,-84,qs),
(119,-98,o),
(506,-107,o),
(534,-94,qs),
(559,-82,o),
(550,-47,o)
);
}
);
width = 600;
}
);
unicode = 95;
},
{
glyphname = quoteleft;
lastChange = "2022-08-09 19:58:12 +0000";
layers = (
{
layerId = m01;
shapes = (
{
closed = 1;
nodes = (
(293,683,qs),
(274,720,o),
(251,725,o),
(226,699,qs),
(209,680,o),
(211,654,o),
(233,607,qs),
(271,527,o),
(324,493,qs),
(367,466,o),
(378,497,qs),
(381,507,o),
(380,522,qs),
(379,537,o),
(359,582,o),
(346,599,qs),
(310,649,o)
);
}
);
width = 600;
}
);
unicode = 8216;
},
{
glyphname = guilsinglleft;
lastChange = "2022-08-09 19:58:36 +0000";
layers = (
{
layerId = m01;
shapes = (
{
closed = 1;
nodes = (
(233,463,o),
(220,455,qs),
(206,445,o),
(188,417,o),
(188,404,qs),
(188,369,o),
(250,217,o),
(300,165,o),
(325,169,qs),
(348,172,o),
(339,197,qs),
(335,206,o),
(339,229,o),
(345,236,qs),
(353,246,o),
(342,277,o),
(319,305,qs),
(287,346,o),
(275,407,o),
(297,419,qs),
(314,428,o),
(383,506,qs),
(422,551,o),
(442,589,o),
(433,600,qs),
(388,655,o),
(306,547,qs),
(284,518,o)
);
}
);
width = 600;
}
);
unicode = 8249;
},
{
glyphname = guilsinglright;
lastChange = "2022-08-09 19:58:58 +0000";
layers = (
{
layerId = m01;
shapes = (
{
closed = 1;
nodes = (
(303,410,o),
(316,410,qs),
(319,410,o),
(321,409,qs),
(342,398,o),
(283,318,qs),
(181,186,o),
(208,160,q),
(210,157,o),
(214,157,qs),
(246,158,o),
(410,379,qs),
(417,389,o),
(381,438,o),
(330,488,qs),
(261,556,o),
(214,585,o),
(203,566,qs),
(197,557,o)
);
}
);
width = 600;
}
);
unicode = 8250;
},
{
glyphname = quotedbl;
lastChange = "2022-08-09 20:01:33 +0000";
layers = (
{
layerId = m01;
shapes = (
{
closed = 1;
nodes = (
(260,702,qs),
(251,719,o),
(219,727,o),
(208,715,qs),
(196,701,o),
(198,663,qs),
(184,624,o),
(184,561,qs),
(184,536,o),
(189,500,o),
(191,497,qs),
(203,485,o),
(255,497,o),
(255,538,qs),
(255,563,o),
(271,675,o)
);
},
{
closed = 1;
nodes = (
(364,525,o),
(378,512,qs),
(390,502,o),
(415,511,o),
(431,544,o),
(427,561,qs),
(424,573,o),
(431,622,o),
(439,644,qs),
(458,698,o),
(450,710,qs),
(443,724,o),
(407,719,o),
(392,701,qs),
(376,682,o)
);
}
);
width = 600;
}
);
unicode = 34;
},
{
glyphname = quotesingle;
lastChange = "2022-08-09 19:59:45 +0000";
layers = (
{
layerId = m01;
shapes = (
{
closed = 1;
nodes = (
(268,595,qs),
(266,574,o),
(275,525,o),
(283,512,qs),
(290,499,o),
(298,493,qs),
(325,473,o),
(345,519,qs),
(370,577,o),
(357,665,qs),
(349,716,o),
(336,739,o),
(311,745,qs),
(276,753,o),
(260,736,o),
(265,694,qs),
(270,657,o)
);
}
